<?xml version="1.0" standalone="no"?>
<!DOCTYPE svg PUBLIC "-//W3C//DTD SVG 20010904//EN"
 "http://www.w3.org/TR/2001/REC-SVG-20010904/DTD/svg10.dtd">
<svg version="1.0" xmlns="http://www.w3.org/2000/svg"
 width="4096.000000pt" height="4096.000000pt" viewBox="0 0 4096.000000 4096.000000"
 preserveAspectRatio="xMidYMid meet">
<metadata>
Created by potrace 1.11, written by Peter Selinger 2001-2013
</metadata>
<g transform="translate(0.000000,4096.000000) scale(0.100000,-0.100000)"
fill="#000000" stroke="none">
<path d="M0 20480 l0 -15360 20480 0 20480 0 0 15360 0 15360 -8489 0 c-6782
0 -8491 -3 -8495 -12 -5 -10 -7 -10 -12 0 -4 9 -2411 12 -11985 12 l-11979 0
0 -15360z m23710 15290 c0 -5 0 -12 0 -15 0 -14 -13 -8 -16 8 -1 9 2 17 7 17
5 0 9 -4 9 -10z m115 -10 c-3 -5 -12 -10 -18 -10 -7 0 -6 4 3 10 19 12 23 12
15 0z m485 -4 c0 -3 -4 -8 -10 -11 -5 -3 -10 -1 -10 4 0 6 5 11 10 11 6 0 10
-2 10 -4z m-614 -42 c-7 -18 10 -27 47 -26 42 1 72 -15 58 -32 -13 -16 -4 -26
21 -26 15 0 18 5 13 19 -8 28 9 34 30 11 17 -18 17 -20 1 -20 -9 0 -19 -7 -22
-15 -4 -8 -20 -16 -38 -16 -24 -1 -26 -3 -8 -6 17 -3 21 -9 17 -24 -4 -11 -2
-19 4 -19 6 0 11 5 11 10 0 6 9 10 20 10 11 0 20 7 20 15 0 9 6 18 14 21 8 3
12 12 9 20 -7 18 25 30 40 15 9 -9 16 -6 28 10 l17 22 11 -21 c9 -16 7 -27 -7
-51 -9 -17 -23 -31 -30 -31 -12 0 -21 -17 -54 -100 l-11 -25 -9 33 c-5 17 -13
32 -18 32 -14 0 -12 -97 2 -106 8 -5 9 -2 5 9 -5 12 -1 17 12 17 26 0 41 -22
34 -50 -4 -16 -3 -21 5 -16 7 4 12 1 12 -7 0 -10 -7 -13 -20 -10 -11 3 -20 0
-20 -6 0 -6 7 -11 15 -11 9 0 15 -9 16 -22 l0 -23 11 23 c6 12 15 22 20 22 4
0 8 7 8 15 0 20 10 19 25 -2 11 -15 14 -15 31 5 14 17 21 19 32 10 10 -9 16
-8 23 3 17 27 11 42 -16 35 -21 -5 -25 -3 -25 15 0 21 -1 21 -19 5 -13 -12
-21 -14 -26 -6 -4 7 2 18 14 26 12 8 21 22 21 31 0 12 3 13 14 4 11 -10 21 -9
45 3 16 9 38 16 49 16 10 0 23 5 30 12 9 9 12 9 12 0 0 -6 16 5 36 24 29 30
33 38 23 51 -12 13 -14 13 -25 -1 -15 -21 -24 -20 -24 2 0 11 -11 24 -25 30
-14 6 -25 16 -25 21 0 18 66 5 88 -17 12 -12 27 -22 32 -22 6 0 10 -6 10 -14
0 -17 18 -31 27 -22 3 3 0 12 -7 21 -10 12 -10 15 4 15 9 0 16 -5 16 -11 0 -6
6 -9 13 -6 6 2 11 9 10 14 -1 5 9 10 23 11 18 1 27 -5 35 -25 7 -18 6 -30 -1
-37 -12 -12 -13 -26 -1 -26 5 0 11 9 14 21 3 12 10 18 16 14 8 -4 8 -13 0 -28
-12 -21 -12 -21 16 -3 l27 18 -7 -41 c-8 -46 0 -54 15 -16 7 18 16 24 35 23
27 -2 36 -18 10 -18 -8 0 -15 -4 -15 -10 0 -5 6 -10 14 -10 8 0 18 -5 21 -11
4 -6 1 -10 -6 -8 -31 4 -39 -2 -40 -28 0 -28 -1 -28 -11 -5 -13 27 -28 29 -28
3 0 -20 25 -36 49 -32 9 2 12 -3 8 -13 -5 -12 0 -16 16 -16 20 -1 21 -2 5 -14
-21 -15 -24 -36 -5 -36 17 1 47 25 47 38 0 6 -6 13 -12 15 -7 3 -1 6 15 6 23
1 27 5 27 30 0 17 5 33 10 36 6 3 10 -3 10 -14 0 -12 5 -21 10 -21 6 0 10 9
10 20 0 13 7 20 20 20 13 0 22 10 28 32 9 38 28 47 37 19 3 -11 15 -23 26 -26
10 -4 19 -11 19 -16 0 -6 -8 -8 -19 -4 -15 5 -18 1 -13 -20 2 -14 8 -25 13
-25 5 0 9 -7 9 -16 0 -10 -6 -14 -14 -11 -17 7 -36 -11 -30 -28 3 -6 -2 -17
-10 -24 -20 -17 -54 2 -58 31 -3 21 -5 20 -21 -11 -16 -33 -16 -35 0 -54 18
-19 17 -20 -9 -13 -27 6 -39 -6 -18 -19 19 -12 11 -38 -10 -32 -17 4 -18 2 -9
-15 20 -37 -24 -93 -46 -58 -3 6 -15 10 -27 10 -15 0 -19 -5 -15 -19 2 -10 0
-26 -5 -36 -9 -15 -7 -16 21 -10 29 6 32 4 37 -24 6 -30 24 -44 24 -19 0 9 3
8 13 -1 10 -11 10 -14 0 -18 -21 -8 -15 -31 10 -35 15 -2 22 -10 23 -26 2 -32
-14 -37 -37 -11 -10 12 -19 17 -19 11 0 -7 -7 -12 -16 -12 -11 0 -13 6 -9 20
6 20 -10 60 -24 60 -5 0 -7 -10 -4 -21 4 -15 0 -27 -13 -36 -19 -14 -19 -14 1
-26 11 -7 27 -12 35 -13 8 -1 25 -2 38 -3 19 -1 21 -5 15 -28 -4 -16 -7 -46
-7 -68 -1 -36 1 -40 22 -38 13 2 21 -1 17 -7 -3 -6 -24 -10 -45 -10 -56 0 -90
-38 -53 -59 14 -8 15 -12 4 -25 -7 -9 -23 -16 -35 -16 -26 0 -76 22 -76 33 0
5 5 5 11 1 6 -3 15 0 20 7 8 12 11 11 20 -3 5 -10 18 -18 27 -17 10 0 12 3 5
6 -7 2 -13 13 -13 22 0 25 -11 33 -27 20 -10 -9 -13 -6 -13 15 0 18 -5 26 -17
27 -16 0 -16 1 1 8 14 5 16 10 8 15 -7 4 -16 4 -22 1 -6 -4 -9 9 -9 32 1 23 3
29 6 16 5 -24 18 -30 28 -13 3 6 1 10 -5 10 -6 0 -9 4 -5 9 3 5 1 12 -3 15
-10 6 -9 36 2 54 4 8 1 12 -9 12 -13 0 -16 -6 -11 -26 6 -21 4 -25 -11 -22
-10 2 -17 11 -15 20 1 9 -2 19 -8 23 -5 3 -10 -1 -10 -9 0 -9 -7 -16 -16 -16
-11 0 -14 6 -8 23 6 21 6 21 -14 -3 -20 -24 -20 -25 -1 -32 20 -8 26 -33 9
-43 -5 -3 -10 -12 -10 -18 0 -7 4 -6 10 3 8 13 11 13 24 0 19 -19 10 -60 -13
-60 -13 0 -13 -2 -2 -9 17 -11 5 -32 -14 -24 -8 3 -15 0 -15 -6 0 -6 5 -11 10
-11 15 0 12 -53 -4 -84 l-13 -26 -16 22 c-14 22 -16 22 -23 4 -4 -11 -2 -21 6
-26 9 -6 1 -11 -24 -15 -35 -7 -38 -10 -34 -37 3 -19 0 -32 -9 -35 -7 -3 -13
-11 -13 -19 0 -8 -4 -14 -10 -14 -18 0 -11 -18 9 -23 34 -9 15 -43 -24 -44
-44 -1 -51 9 -63 82 -6 39 -10 49 -11 28 -1 -22 -7 -34 -20 -38 -22 -7 -37
-38 -22 -43 17 -6 2 -22 -20 -22 -14 0 -19 7 -19 26 0 14 -4 22 -10 19 -11 -7
-25 39 -15 54 3 7 0 8 -9 5 -10 -4 -16 -18 -16 -36 0 -22 -4 -29 -14 -25 -8 3
-17 3 -21 -1 -14 -14 -64 -10 -68 7 -3 11 -5 9 -6 -6 -1 -17 -5 -21 -18 -16
-11 4 -14 3 -9 -5 4 -7 3 -12 -2 -12 -12 0 -22 24 -23 53 0 14 -2 17 -6 7 -2
-8 -7 -22 -10 -30 -8 -19 -10 -27 -12 -40 0 -5 -12 -10 -26 -10 -19 0 -25 -5
-25 -21 0 -14 -5 -19 -14 -16 -8 3 -20 -1 -26 -9 -21 -24 -37 -17 -32 15 5 33
-5 42 -37 34 -23 -6 -26 -38 -4 -38 6 0 15 -3 19 -7 4 -5 0 -8 -8 -8 -9 0 -21
-7 -28 -15 -10 -13 -10 -19 4 -33 24 -28 19 -34 -14 -17 -36 19 -38 19 -43 -2
-3 -10 -5 -1 -6 19 -1 29 2 36 14 32 8 -4 15 -1 15 5 0 6 -4 11 -10 11 -5 0
-7 6 -4 13 3 8 -2 20 -11 27 -13 11 -15 9 -15 -14 0 -22 -4 -26 -29 -26 -26 0
-30 4 -36 40 -5 32 -10 39 -20 30 -8 -7 -15 -7 -19 -1 -3 5 0 12 6 14 7 3 0 6
-15 6 -18 1 -26 -3 -22 -10 4 -6 -3 -13 -15 -16 -15 -4 -20 -11 -17 -24 6 -22
-2 -24 -28 -5 -12 9 -16 20 -12 35 3 14 0 24 -9 28 -9 3 -12 13 -8 25 4 14 2
18 -5 14 -6 -4 -11 -2 -11 3 0 6 -11 11 -25 11 -14 0 -25 -5 -25 -10 0 -6 -21
-20 -46 -30 -29 -13 -43 -24 -38 -31 5 -9 0 -10 -17 -5 -13 4 -36 10 -51 13
-29 6 -37 18 -15 26 9 4 9 6 0 6 -7 1 -17 -8 -23 -18 -6 -13 -17 -18 -32 -15
l-23 5 23 -10 c14 -7 22 -19 22 -33 -1 -22 -1 -22 -15 -4 -15 20 -35 14 -35
-10 0 -8 -4 -12 -10 -9 -5 3 -10 -1 -10 -9 0 -9 -7 -16 -15 -16 -18 0 -20 -21
-3 -38 9 -9 7 -12 -9 -12 -34 0 -37 -19 -6 -31 17 -7 23 -13 15 -16 -8 -3 -19
0 -25 6 -6 6 -20 11 -30 11 -16 0 -17 -3 -7 -15 7 -8 20 -15 28 -15 12 0 13
-3 5 -11 -13 -13 -67 12 -82 38 -10 16 -11 16 -17 -4 -3 -13 -13 -23 -20 -23
-15 0 -55 20 -64 32 -7 9 -50 -19 -50 -33 0 -5 9 -9 20 -9 15 0 20 -7 21 -27
0 -16 3 -22 6 -15 2 6 8 10 13 7 4 -3 -3 -28 -17 -56 l-25 -50 -24 22 c-17 16
-24 18 -24 8 0 -9 -7 -5 -19 10 l-18 24 -6 -31 c-4 -19 0 -42 9 -61 21 -42 34
-48 34 -15 0 22 3 25 12 16 17 -17 48 -15 48 3 0 8 5 15 10 15 6 0 10 -11 10
-25 0 -16 -6 -25 -15 -25 -8 0 -15 -7 -15 -15 0 -8 -4 -15 -10 -15 -5 0 -10 7
-10 15 0 22 -21 18 -27 -5 -3 -11 -9 -17 -15 -14 -5 3 -16 0 -24 -7 -20 -16
-29 -4 -26 36 2 18 -1 36 -7 39 -11 7 -44 -21 -54 -47 -3 -9 -12 -17 -19 -17
-16 -1 -68 -74 -68 -95 0 -8 -7 -15 -15 -15 -14 0 -17 -5 -19 -42 -1 -17 -58
-61 -95 -73 -12 -3 -21 -10 -21 -14 0 -17 -43 -51 -65 -51 -14 0 -25 -5 -25
-11 0 -17 -76 -89 -94 -89 -8 0 -22 -13 -30 -28 -11 -22 -22 -29 -46 -30 -19
0 -39 -9 -49 -21 -10 -12 -25 -21 -34 -21 -16 0 -31 -26 -22 -40 3 -4 -4 -6
-15 -3 -12 3 -20 0 -20 -6 0 -7 -5 -9 -11 -5 -8 4 -7 9 2 15 10 6 9 12 -6 28
-11 13 -18 34 -17 57 1 30 -1 34 -13 24 -8 -6 -17 -22 -21 -33 -3 -12 -17 -45
-30 -72 -20 -42 -23 -65 -21 -132 1 -45 -1 -79 -5 -77 -8 5 -29 -56 -23 -66
12 -20 -15 -18 -29 2 -21 29 -30 18 -15 -18 7 -16 13 -32 13 -36 1 -3 4 -10 9
-14 11 -11 9 -142 -3 -149 -5 -3 -10 -17 -10 -31 0 -13 -4 -24 -10 -24 -13 0
-13 -53 -1 -65 11 -12 -6 -164 -21 -182 -6 -7 -5 -14 2 -18 13 -8 13 -60 0
-85 -7 -13 -7 -21 0 -25 8 -5 7 -11 -1 -21 -6 -8 -13 -31 -15 -50 -2 -20 -8
-42 -14 -48 -5 -7 -7 -15 -4 -19 3 -3 3 -15 -1 -27 -5 -15 -13 -20 -26 -17
-13 4 -23 -3 -34 -25 -17 -34 -10 -82 11 -74 21 8 40 -22 27 -44 -9 -13 -9
-20 0 -29 8 -8 8 -14 1 -19 -13 -9 -36 -129 -33 -173 2 -39 -8 -69 -30 -86
-13 -9 -13 -14 -4 -24 8 -8 9 -18 2 -31 -8 -14 -6 -18 7 -18 11 0 14 -5 9 -17
-10 -27 -24 -107 -19 -112 2 -2 -3 -12 -11 -21 -14 -15 -14 -18 0 -30 22 -18
19 -38 -16 -81 -17 -21 -25 -39 -18 -39 8 0 6 -6 -5 -19 -10 -10 -13 -22 -8
-25 6 -3 4 -28 -4 -63 -8 -33 -11 -73 -7 -93 4 -19 6 -38 5 -42 -2 -10 34 -10
77 -2 17 4 28 11 25 16 -3 5 12 8 36 6 23 -1 44 -8 47 -15 3 -8 15 -11 32 -8
20 4 22 3 7 -3 -14 -6 -16 -11 -8 -16 14 -8 32 0 32 15 0 5 -11 14 -25 19 -30
11 -34 24 -5 15 14 -5 20 -2 20 9 0 12 10 16 35 16 19 0 35 -4 35 -10 0 -5 7
-10 15 -10 18 0 19 12 3 28 -13 13 -6 24 20 27 9 1 25 6 35 10 10 4 37 3 60
-2 l42 -10 -38 -8 c-30 -6 -38 -11 -34 -25 3 -13 0 -16 -14 -13 -14 4 -19 0
-19 -16 0 -22 14 -28 25 -11 3 6 19 10 36 10 16 0 29 5 29 10 0 14 37 13 46
-1 5 -8 10 -6 16 5 5 9 21 16 36 16 15 0 37 7 49 15 19 13 21 13 26 -6 l6 -21
29 21 c17 11 37 21 46 21 9 0 16 5 16 10 0 6 6 10 13 10 8 0 29 8 48 17 19 10
39 18 44 18 6 1 42 5 80 10 39 4 80 8 93 7 14 -1 22 4 22 14 0 10 8 15 23 13
12 -1 29 0 37 3 48 16 92 28 145 38 33 6 69 15 80 19 30 12 105 32 145 38 19
3 42 13 50 24 11 13 28 18 60 18 114 1 124 2 135 18 7 9 25 16 44 15 22 0 31
4 31 15 0 11 6 14 24 9 17 -4 26 -1 30 10 6 15 8 15 25 0 22 -20 47 -12 56 17
4 14 8 17 12 10 7 -18 43 -16 43 2 0 17 16 20 25 5 3 -5 12 -7 20 -3 8 3 15 0
15 -6 0 -11 49 -5 60 8 3 3 20 6 38 7 48 2 61 19 34 44 -25 24 -52 26 -52 4 0
-8 -5 -12 -10 -9 -8 5 -7 12 2 22 9 11 23 13 50 9 30 -5 38 -3 38 9 0 18 30
21 30 3 1 -8 6 -6 14 5 7 9 16 17 20 17 9 0 7 -23 -3 -39 -8 -12 -12 -13 -25
-1 -19 15 -21 14 -30 -22 -8 -33 8 -37 54 -13 25 13 29 13 34 -2 5 -12 9 -14
18 -5 15 15 32 16 23 2 -3 -5 1 -10 9 -10 8 0 18 5 21 10 4 6 10 8 15 5 4 -2
19 4 32 15 14 11 28 16 32 12 4 -3 4 1 0 11 -4 13 -1 17 15 17 12 0 21 4 21 9
0 4 11 6 25 3 22 -4 25 -1 25 22 0 30 14 34 29 9 10 -17 10 -17 11 0 0 9 5 17
11 17 5 0 7 5 4 10 -3 6 -1 10 4 10 6 0 11 -9 11 -21 0 -16 4 -19 18 -13 9 4
38 9 65 12 26 2 47 8 47 13 0 6 7 6 18 1 9 -5 26 -6 37 -1 30 11 35 11 35 -6
0 -8 5 -15 10 -15 6 0 10 7 10 15 0 9 7 18 15 21 8 4 15 13 15 21 0 10 6 13
18 8 9 -4 32 -9 50 -12 46 -8 51 -24 5 -19 -21 3 -45 1 -53 -4 -13 -8 -12 -10
3 -10 10 0 20 -6 23 -13 6 -17 102 -16 113 2 5 7 20 10 39 6 36 -6 41 7 17 42
-18 26 -12 31 51 40 34 4 45 3 40 -5 -4 -7 -1 -12 9 -12 9 0 14 4 10 9 -3 5
-2 12 3 14 4 3 12 -6 19 -19 6 -13 7 -24 2 -24 -5 0 -9 5 -9 12 0 9 -3 9 -11
1 -17 -17 -3 -43 21 -43 27 0 62 19 55 29 -2 5 2 14 11 21 12 10 12 15 2 21
-9 6 -8 10 5 15 11 4 22 0 30 -10 10 -13 38 -21 92 -25 6 -1 3 -6 -5 -12 -12
-8 -11 -10 5 -7 15 3 19 10 18 31 -2 23 2 27 23 27 21 0 24 -3 19 -21 -6 -17
-4 -20 6 -13 8 5 32 10 53 11 47 3 69 19 61 44 -4 12 -1 21 9 25 17 6 76 -16
76 -28 0 -5 7 -8 15 -8 8 0 15 9 15 21 0 11 4 18 9 15 5 -4 11 -2 13 3 1 6 44
13 93 16 50 3 123 8 164 10 55 4 77 10 87 22 7 10 14 14 14 9 0 -22 30 20 30
43 0 44 20 101 35 101 8 0 15 5 15 11 0 5 -4 7 -10 4 -21 -13 -30 6 -15 35 18
34 19 73 5 101 -8 15 -7 21 3 25 16 6 15 3 18 106 2 43 0 81 -4 85 -4 3 -7 47
-7 98 0 57 -4 95 -12 103 -8 8 -8 12 -1 12 13 0 8 107 -6 124 -5 6 -11 37 -13
69 -3 32 -1 52 3 45 7 -10 11 -10 21 0 10 10 8 14 -10 18 -26 7 -29 21 -6 26
18 3 30 58 13 58 -5 0 -14 10 -19 23 -8 20 -9 21 -10 2 -3 -38 -19 37 -25 115
-3 41 -8 83 -11 92 -3 10 3 22 15 30 15 9 17 16 10 30 -6 12 -6 18 1 18 14 0
13 43 -2 58 -10 10 -15 4 -24 -25 l-12 -38 -1 42 c-1 36 2 42 22 45 24 3 30
36 14 71 -7 16 -5 18 11 13 21 -7 22 -6 38 87 5 27 13 41 29 47 17 7 21 14 18
34 -3 14 -2 34 2 43 5 10 7 21 7 26 -1 4 7 7 18 7 11 0 20 -4 20 -9 0 -5 9 -7
20 -4 11 3 20 9 20 14 0 5 11 9 25 9 17 0 25 6 25 18 1 16 60 62 80 62 13 0
32 39 25 50 -8 13 31 13 56 0 16 -9 19 -7 19 12 0 17 3 19 12 10 7 -7 25 -12
40 -12 15 0 28 5 28 12 0 9 3 9 12 0 7 -7 27 -12 46 -12 32 0 33 -1 27 -30 -5
-23 -3 -30 8 -30 8 0 17 9 20 20 3 13 10 18 21 14 10 -4 16 -1 16 7 1 8 7 -1
15 -20 12 -27 19 -32 37 -28 14 4 27 0 35 -11 8 -9 12 -11 8 -4 -4 8 6 12 37
14 l43 1 -45 6 c-34 5 -46 11 -48 25 -4 18 -3 19 13 3 9 -9 29 -17 45 -17 16
0 36 -7 45 -16 8 -9 23 -13 32 -10 13 5 14 4 3 -9 -11 -13 -6 -15 35 -15 42 0
47 -2 42 -19 -3 -14 -1 -18 9 -14 8 3 14 -1 14 -11 0 -9 4 -16 8 -16 5 0 6 15
4 33 l-5 32 27 -28 c14 -16 24 -33 21 -38 -11 -17 87 -10 107 8 10 9 18 11 18
5 0 -23 60 -44 102 -37 29 5 39 4 34 -4 -4 -6 -20 -11 -37 -11 -16 0 -29 -5
-29 -10 0 -6 19 -9 48 -6 51 5 84 -5 63 -19 -7 -4 -18 -4 -25 -2 -10 4 -12 -1
-8 -15 4 -17 12 -19 51 -17 25 1 58 -1 72 -5 28 -8 62 -56 57 -83 -2 -11 3
-18 12 -18 8 0 16 10 18 22 2 12 11 27 20 35 9 7 13 8 9 2 -4 -7 0 -15 8 -18
8 -3 15 -9 14 -13 -4 -24 4 -33 31 -33 19 0 30 -5 30 -14 0 -8 9 -18 20 -21
11 -3 20 -15 20 -26 0 -10 5 -19 10 -19 6 0 10 -8 10 -19 0 -30 24 -68 39 -63
10 3 12 0 8 -11 -3 -9 -2 -19 4 -23 6 -3 7 -18 4 -34 -5 -24 -2 -28 19 -34 19
-5 26 -13 26 -31 0 -14 3 -24 8 -24 19 3 23 -2 13 -15 -9 -10 -8 -15 4 -20 8
-3 15 -13 15 -22 0 -9 9 -28 19 -43 19 -26 33 -87 34 -144 0 -19 5 -26 14 -23
9 4 13 -5 13 -33 0 -23 8 -48 20 -64 17 -21 18 -26 5 -31 -19 -7 -20 -26 -1
-26 8 0 14 -6 13 -12 -2 -53 4 -88 16 -85 8 1 15 -21 21 -68 5 -38 12 -72 15
-75 13 -11 32 -56 36 -85 7 -49 13 -72 24 -94 6 -11 11 -34 11 -51 0 -17 6
-41 14 -53 12 -19 26 -90 31 -163 1 -11 5 -25 9 -32 13 -21 13 -84 -1 -97 -9
-10 -42 -12 -128 -10 -96 3 -115 2 -115 -10 0 -14 28 -20 73 -17 10 1 20 -5
23 -13 4 -9 19 -15 35 -15 17 0 41 -7 55 -16 16 -11 36 -15 59 -11 19 3 37 1
41 -4 3 -6 12 -8 19 -5 8 3 27 -2 44 -10 24 -12 34 -12 49 -3 16 10 24 9 45
-8 16 -13 43 -20 74 -21 63 -2 103 -11 103 -23 0 -6 4 -8 9 -5 5 3 28 0 52 -8
63 -19 169 -39 201 -37 15 1 42 -7 61 -18 20 -11 44 -17 60 -14 15 3 27 1 27
-4 0 -10 72 -30 114 -32 17 -1 33 -7 38 -14 5 -8 8 -8 8 0 0 14 88 -18 100
-37 7 -11 12 -11 23 -2 12 10 18 10 30 -3 9 -8 20 -15 24 -14 24 4 63 -2 59
-9 -3 -5 14 -9 37 -9 23 -1 60 -8 82 -16 22 -8 67 -23 100 -33 33 -11 63 -23
66 -28 4 -5 16 -6 28 -3 12 3 21 2 21 -3 0 -4 16 -11 35 -14 19 -4 35 -11 35
-15 0 -5 26 -14 59 -21 72 -15 75 -17 88 -60 l11 -35 1 32 1 33 38 -20 c20
-10 55 -22 77 -26 22 -3 48 -16 57 -28 16 -19 18 -20 18 -2 0 16 2 17 16 5 9
-7 24 -14 33 -16 26 -4 82 -29 82 -36 -3 -22 1 -27 20 -27 11 0 17 -4 14 -10
-3 -6 4 -10 17 -10 13 -1 41 -8 63 -16 22 -9 54 -19 70 -24 17 -4 22 -8 13 -9
-10 -1 -18 -5 -18 -10 0 -4 33 -12 73 -16 52 -5 66 -10 52 -15 -19 -8 -19 -9
3 -9 23 -1 136 -56 160 -78 7 -7 20 -13 28 -13 14 0 54 -19 64 -31 3 -3 16 -9
30 -12 18 -4 25 -13 26 -32 2 -35 11 -55 25 -55 6 0 9 7 6 15 -7 17 9 30 18
15 3 -5 13 -10 21 -10 9 0 30 -16 48 -35 19 -19 39 -35 46 -35 7 0 32 -20 57
-45 24 -25 50 -45 58 -45 8 0 15 -8 15 -17 0 -22 46 -47 54 -29 3 6 4 2 1 -9
-3 -14 2 -23 18 -30 13 -6 21 -17 19 -28 -2 -11 4 -17 18 -17 11 0 20 -6 20
-14 0 -7 13 -20 28 -27 49 -24 107 -80 92 -89 -9 -6 -7 -10 8 -14 11 -4 19
-14 18 -24 -1 -11 7 -18 22 -20 12 -2 20 -7 17 -12 -3 -5 8 -18 25 -30 16 -12
30 -28 30 -36 0 -8 5 -14 10 -14 6 0 10 -9 10 -19 0 -11 5 -23 11 -27 6 -3 9
-15 6 -25 -3 -11 -1 -19 4 -19 5 0 9 5 9 11 0 13 35 7 36 -6 3 -38 19 -87 29
-92 19 -7 28 -52 14 -69 -9 -12 -6 -14 20 -14 17 0 31 -4 31 -10 0 -5 -7 -10
-15 -10 -20 0 -19 -29 1 -37 9 -3 20 0 25 8 7 11 9 11 9 -3 0 -9 3 -23 6 -32
4 -11 0 -16 -12 -16 -16 0 -16 -2 -4 -10 8 -5 20 -24 26 -42 7 -21 19 -35 35
-39 13 -4 18 -7 12 -8 -7 -1 -13 -8 -13 -16 0 -16 28 -65 42 -75 4 -3 5 -23 3
-44 -4 -30 -1 -41 16 -55 27 -21 38 -87 14 -77 -11 4 -14 2 -8 -7 29 -45 43
-137 21 -137 -9 0 -9 -3 0 -12 7 -7 12 -23 13 -38 0 -14 3 -19 6 -12 7 17 23
15 23 -3 0 -8 -6 -15 -14 -15 -7 0 -16 -9 -19 -20 -3 -11 -1 -20 4 -20 5 0 9
-7 9 -15 0 -8 7 -15 15 -15 8 0 15 -4 15 -10 0 -5 -9 -10 -21 -10 -18 0 -20
-4 -14 -30 3 -16 2 -37 -3 -47 -7 -11 -7 -26 0 -42 9 -24 6 -37 -24 -94 -6
-12 -5 -23 3 -33 7 -8 9 -27 5 -50 -5 -22 -3 -41 4 -49 7 -8 9 -24 4 -37 -7
-22 -7 -22 -15 -3 -7 15 -8 10 -5 -16 2 -23 -3 -44 -14 -59 -12 -16 -16 -31
-10 -44 9 -26 1 -96 -11 -96 -5 0 -9 -9 -9 -20 0 -11 -5 -20 -11 -20 -6 0 -8
-9 -4 -20 4 -12 2 -20 -5 -20 -24 0 -40 -29 -35 -65 4 -34 -11 -85 -24 -85 -4
0 -8 -10 -8 -22 -1 -13 -9 -28 -17 -34 -9 -6 -13 -14 -9 -17 3 -4 0 -15 -8
-24 -8 -10 -21 -31 -28 -48 -26 -57 -54 -110 -67 -126 -8 -8 -14 -21 -14 -28
0 -6 -7 -14 -15 -17 -8 -4 -15 -14 -15 -24 0 -10 -13 -28 -30 -40 -16 -12 -30
-29 -30 -39 0 -10 -9 -26 -20 -36 -11 -10 -20 -22 -20 -27 0 -5 -20 -29 -45
-54 -25 -24 -42 -44 -38 -44 4 0 -6 -13 -22 -30 -16 -16 -32 -30 -36 -30 -10
0 -69 -56 -69 -66 0 -12 -42 -54 -54 -54 -5 0 -35 -19 -65 -43 -31 -24 -64
-46 -73 -50 -10 -3 -18 -13 -18 -22 0 -8 -7 -15 -15 -15 -8 0 -15 -5 -15 -11
0 -6 -6 -9 -12 -7 -7 3 -30 -8 -52 -24 -21 -15 -45 -28 -51 -28 -7 0 -17 -6
-23 -13 -10 -12 -101 -59 -172 -90 -19 -8 -54 -23 -77 -33 -24 -10 -43 -22
-43 -26 0 -13 -50 -29 -63 -21 -18 11 -71 3 -80 -13 -4 -8 -16 -14 -25 -14 -9
-1 -35 -8 -57 -16 -22 -9 -47 -15 -55 -16 -8 0 -49 -6 -90 -13 -41 -8 -103
-17 -137 -20 -42 -5 -63 -12 -67 -22 -6 -14 -8 -14 -24 0 -12 11 -29 15 -53
11 -49 -7 -247 -6 -260 1 -5 4 -16 2 -24 -5 -10 -8 -27 -8 -67 0 -29 6 -96 15
-148 20 -52 6 -129 17 -170 25 -41 8 -95 17 -119 20 -25 3 -49 9 -55 14 -6 5
-33 12 -61 16 -27 4 -61 13 -75 20 -14 7 -45 16 -70 20 -25 4 -54 12 -64 17
-10 6 -46 18 -80 28 -34 9 -95 33 -136 53 -41 19 -111 51 -155 71 -44 20 -96
45 -115 55 -19 11 -63 34 -97 52 -35 18 -63 36 -63 40 0 4 -14 11 -32 14 -17
4 -41 16 -52 27 -11 10 -49 35 -83 54 -35 19 -63 39 -63 43 0 14 -134 32 -202
26 -37 -3 -69 -2 -72 3 -3 5 -60 7 -128 5 -147 -5 -104 -4 -378 -3 -124 0
-252 -2 -285 -5 -33 -3 -100 -10 -150 -14 -49 -5 -117 -9 -150 -9 -55 -1 -315
-23 -425 -37 -25 -3 -74 -7 -110 -10 -91 -6 -257 -24 -283 -30 -12 -3 -60 -10
-107 -15 -128 -15 -302 -39 -320 -45 -8 -3 -58 -11 -110 -19 -77 -12 -279 -44
-375 -60 -11 -2 -56 -10 -100 -19 -44 -8 -125 -23 -180 -32 -55 -10 -158 -31
-228 -46 -71 -16 -141 -29 -156 -29 -15 0 -31 -3 -35 -7 -4 -5 -35 -13 -69
-19 -34 -6 -93 -19 -132 -29 -38 -9 -97 -23 -130 -30 -94 -20 -468 -116 -490
-125 -11 -5 -31 -11 -45 -13 -46 -8 -443 -120 -485 -137 -11 -4 -117 -39 -235
-78 -211 -69 -396 -133 -535 -187 -38 -14 -85 -31 -104 -37 -19 -5 -62 -23
-95 -39 -33 -16 -67 -29 -76 -29 -9 0 -20 -4 -25 -8 -6 -4 -46 -23 -90 -41
-44 -18 -98 -41 -120 -51 -22 -10 -65 -29 -95 -43 -30 -14 -93 -42 -140 -64
-155 -70 -344 -168 -348 -180 -2 -9 9 -13 38 -13 24 0 54 -8 68 -18 15 -10 41
-24 57 -32 17 -8 45 -27 63 -42 18 -16 42 -28 52 -28 11 0 20 -4 20 -9 0 -5 6
-11 13 -14 22 -8 181 21 252 47 39 14 79 25 90 26 12 0 25 4 30 9 6 5 24 12
40 14 17 3 44 10 60 17 17 7 44 14 60 16 17 2 48 11 70 20 22 9 56 20 75 25
19 4 51 12 70 18 19 6 67 18 107 28 39 10 75 22 79 26 4 4 21 7 39 7 17 0 35
4 40 9 6 5 26 11 45 14 19 2 42 6 50 9 55 19 275 79 305 83 11 2 50 10 87 20
37 9 77 14 88 10 11 -4 20 -2 20 4 0 6 10 11 23 11 13 0 28 5 35 12 9 9 12 9
12 -3 0 -12 2 -12 10 1 6 9 65 27 157 46 81 18 184 41 228 52 44 11 107 23
140 27 33 3 78 12 100 20 22 7 76 18 120 25 44 7 85 16 91 21 6 5 30 11 55 14
24 2 71 9 104 15 33 6 76 13 95 15 19 3 50 10 68 16 18 6 51 9 73 7 21 -2 40
1 42 6 2 5 28 13 58 17 30 4 106 17 169 29 63 12 129 24 145 26 17 2 84 11
150 20 66 9 127 20 137 24 9 5 36 10 60 11 23 1 79 7 123 14 44 7 104 14 133
15 30 0 63 5 75 9 12 5 72 12 132 16 61 4 113 9 116 11 4 2 35 6 70 9 35 3 78
10 94 15 17 4 66 11 110 14 44 4 94 8 110 10 17 2 68 7 115 11 47 3 103 8 125
10 22 2 112 8 200 14 88 6 198 16 245 22 46 5 127 12 180 14 52 3 113 7 136 9
228 24 1162 25 1589 2 117 -6 168 -10 420 -36 334 -35 428 -47 555 -69 30 -5
111 -19 180 -30 69 -11 148 -27 175 -35 28 -8 77 -20 110 -27 33 -7 65 -15 70
-18 6 -3 19 -7 30 -8 42 -4 116 -23 221 -58 60 -19 132 -43 159 -52 28 -8 73
-26 102 -39 28 -13 63 -24 77 -24 15 0 30 -8 36 -19 6 -12 17 -17 29 -14 10 3
22 0 25 -6 4 -6 18 -11 32 -11 21 0 59 -15 74 -30 19 -19 95 -51 110 -47 12 3
36 -7 62 -26 24 -18 66 -44 93 -58 28 -14 64 -34 80 -43 17 -9 38 -16 48 -16
9 0 17 -6 17 -14 0 -8 10 -18 23 -21 12 -4 38 -19 57 -34 19 -14 52 -35 72
-46 20 -10 42 -29 49 -42 7 -13 18 -23 25 -23 12 0 29 -13 91 -67 14 -13 30
-23 35 -23 12 0 128 -117 128 -130 0 -5 9 -10 20 -10 13 0 20 -7 20 -20 0 -11
4 -20 9 -20 6 0 18 -13 28 -30 9 -16 21 -30 26 -30 16 0 57 -54 57 -73 0 -10
5 -15 10 -12 6 3 14 -5 20 -19 5 -14 14 -26 19 -26 5 0 16 -16 25 -35 10 -19
26 -43 36 -53 11 -10 30 -38 43 -63 12 -24 35 -63 50 -86 15 -24 27 -47 27
-53 0 -5 9 -24 19 -41 11 -17 17 -38 14 -45 -3 -7 3 -21 12 -30 9 -9 14 -25
12 -35 -3 -12 0 -16 9 -12 9 3 14 -2 15 -13 1 -35 7 -55 24 -80 9 -14 14 -32
11 -39 -2 -7 2 -19 10 -26 8 -6 13 -17 11 -23 -2 -6 0 -22 5 -36 5 -13 12 -47
15 -75 3 -27 11 -69 19 -92 8 -23 13 -45 12 -50 -1 -4 2 -37 7 -73 11 -90 12
-135 2 -285 -10 -170 -13 -191 -26 -250 -7 -27 -15 -72 -18 -100 -3 -27 -12
-59 -19 -71 -8 -11 -11 -24 -8 -27 4 -4 2 -13 -5 -20 -6 -8 -13 -27 -15 -43
-2 -16 -11 -49 -21 -74 -9 -25 -18 -54 -21 -65 -2 -11 -8 -21 -14 -23 -5 -2
-10 -11 -10 -19 0 -17 -41 -96 -52 -101 -5 -2 -8 -10 -8 -19 0 -8 -9 -26 -20
-40 -11 -14 -20 -34 -20 -44 0 -10 -5 -21 -11 -24 -5 -4 -34 -44 -63 -88 -30
-45 -66 -95 -82 -112 -16 -16 -29 -33 -29 -36 0 -4 -26 -34 -57 -68 -32 -34
-58 -66 -58 -71 0 -6 -8 -14 -17 -17 -9 -4 -24 -14 -34 -22 -10 -9 -24 -21
-32 -28 -9 -7 -21 -20 -29 -30 -7 -10 -48 -45 -92 -78 -135 -104 -139 -106
-148 -92 -5 8 -8 7 -8 -5 0 -9 -12 -26 -27 -37 -16 -12 -32 -24 -38 -29 -14
-10 -144 -72 -153 -72 -4 0 -16 -9 -25 -21 -15 -17 -21 -18 -33 -8 -16 13 -16
14 -31 -21 -8 -19 -23 -29 -62 -39 -28 -7 -53 -17 -57 -22 -3 -5 -16 -9 -30
-9 -13 0 -24 -4 -24 -10 0 -5 -11 -10 -25 -10 -14 0 -28 -7 -31 -15 -4 -9 -11
-14 -18 -13 -6 1 -21 -3 -33 -10 -12 -6 -39 -15 -60 -18 -21 -3 -39 -10 -41
-15 -2 -5 -11 -9 -21 -9 -19 0 -118 -33 -128 -43 -3 -4 -19 -7 -34 -7 -16 0
-51 -9 -78 -20 -45 -17 -140 -39 -196 -44 -11 -1 -31 -8 -45 -15 -38 -22 -159
-51 -230 -56 -36 -3 -83 -9 -105 -15 -22 -5 -112 -21 -200 -35 -88 -13 -187
-29 -220 -34 -33 -6 -85 -13 -115 -17 -30 -3 -64 -9 -75 -11 -31 -8 -171 -23
-265 -28 -47 -2 -96 -7 -110 -11 -14 -4 -52 -8 -85 -9 -33 -1 -76 -5 -95 -8
-19 -4 -78 -9 -130 -12 -52 -3 -126 -8 -163 -11 -38 -3 -81 -1 -97 4 -19 7
-31 7 -39 -1 -12 -12 -103 -17 -470 -22 -171 -3 -226 -7 -232 -17 -7 -10 -11
-10 -17 -1 -5 9 -118 14 -422 18 -228 4 -431 9 -450 11 -19 2 -57 4 -85 4 -78
1 -675 40 -699 45 -11 3 -73 7 -136 10 -63 3 -128 7 -145 10 -16 3 -59 7 -95
9 -36 3 -108 10 -160 16 -52 6 -124 13 -159 16 -36 3 -70 9 -77 15 -7 5 -23 7
-36 4 -13 -3 -50 -1 -83 5 -61 12 -79 14 -195 25 -121 10 -325 36 -340 42 -8
4 -24 7 -35 9 -11 1 -47 7 -79 13 -84 15 -158 4 -506 -76 -85 -19 -227 -53
-315 -75 -88 -23 -178 -44 -200 -49 -22 -4 -80 -19 -130 -32 -49 -13 -114 -30
-144 -37 -29 -7 -64 -18 -78 -25 l-23 -12 27 -11 c16 -6 46 -14 68 -17 22 -4
87 -19 145 -35 58 -15 116 -28 129 -28 14 -1 29 -8 33 -17 5 -8 18 -15 30 -15
23 0 100 -21 108 -30 3 -3 23 -6 45 -7 49 -2 78 -8 104 -22 11 -6 30 -11 43
-11 13 0 29 -5 34 -10 6 -6 35 -13 64 -15 28 -2 60 -11 69 -19 10 -9 26 -13
38 -10 12 3 46 -1 76 -10 30 -9 65 -16 76 -16 12 0 21 -5 21 -11 0 -7 11 -9
27 -6 15 3 38 1 52 -5 14 -5 70 -18 126 -28 104 -20 166 -36 200 -51 11 -5 47
-11 80 -14 33 -2 94 -11 135 -18 41 -8 78 -13 83 -10 4 2 7 -1 7 -7 0 -6 15
-10 33 -10 17 1 50 -3 72 -9 50 -13 185 -21 378 -24 119 -2 146 1 142 11 -4
11 4 12 35 7 24 -4 46 -3 53 3 7 6 18 7 25 3 16 -10 88 -4 122 9 37 15 164 32
264 36 49 2 94 8 100 14 5 5 35 10 66 10 31 0 61 5 68 12 8 8 15 8 27 -2 10
-8 15 -9 15 -1 0 6 -5 11 -11 11 -5 0 -7 5 -4 10 10 16 45 12 45 -5 0 -17 75
-22 85 -5 3 6 23 10 43 10 32 0 34 1 17 13 -16 12 -12 15 41 20 32 3 77 9 99
12 22 3 34 3 28 -1 -27 -12 -11 -20 40 -21 56 -1 92 12 81 29 -7 11 69 7 97
-6 10 -4 23 -1 32 8 9 9 22 16 30 16 9 0 18 6 20 13 4 9 7 9 15 -1 7 -10 11
-10 22 2 7 9 16 13 21 10 8 -5 51 -1 384 30 77 7 146 11 153 9 6 -3 20 -2 30
3 19 8 30 9 162 18 52 3 160 10 240 16 80 6 242 15 360 20 118 6 238 13 265
15 93 8 458 15 765 14 168 0 312 -1 320 0 71 3 541 -26 735 -45 161 -16 390
-51 413 -63 9 -4 35 -11 57 -14 107 -15 279 -48 289 -56 6 -4 31 -11 55 -15
48 -7 102 -32 113 -51 5 -7 17 -11 28 -8 11 3 20 1 20 -4 0 -5 12 -10 27 -11
15 -1 30 -7 33 -13 4 -6 23 -8 48 -4 24 3 43 1 47 -5 3 -5 14 -10 24 -10 17 0
40 -15 87 -56 14 -12 45 -24 74 -28 27 -4 52 -10 54 -15 3 -5 19 -11 35 -14
17 -4 42 -20 57 -37 15 -16 32 -30 39 -30 6 0 21 -9 33 -21 13 -11 38 -27 57
-34 18 -8 36 -24 40 -35 4 -13 15 -20 32 -20 16 0 27 -7 30 -18 2 -10 33 -40
69 -67 35 -27 64 -52 64 -56 0 -4 34 -43 75 -85 41 -43 73 -79 71 -81 -2 -2
11 -20 28 -39 17 -20 29 -37 26 -39 -3 -1 3 -11 12 -21 9 -11 22 -32 28 -49 9
-23 13 -26 20 -15 8 12 10 10 10 -7 0 -14 6 -23 15 -23 9 0 15 -9 15 -21 0
-12 9 -30 21 -40 14 -12 19 -24 14 -38 -4 -15 -2 -19 7 -16 14 5 68 -109 68
-145 0 -11 5 -20 10 -20 6 0 10 -7 10 -16 0 -8 4 -12 10 -9 6 4 7 -6 3 -26 -4
-21 -3 -30 4 -26 12 8 33 -43 33 -80 0 -13 7 -35 16 -48 21 -32 36 -153 22
-178 -7 -13 -7 -22 0 -26 5 -3 10 -22 10 -41 -1 -62 1 -70 17 -64 12 5 15 -3
15 -41 0 -28 -4 -44 -10 -40 -13 8 -13 -41 0 -66 6 -10 7 -19 2 -19 -6 0 -6
-19 -1 -46 7 -35 5 -53 -8 -77 -15 -29 -17 -30 -24 -12 -6 15 -8 16 -8 4 -1
-9 -8 -30 -17 -48 -9 -18 -13 -35 -9 -39 11 -12 29 -8 42 8 21 27 26 2 9 -50
-9 -27 -14 -61 -10 -75 3 -14 2 -25 -3 -25 -5 0 -9 -24 -9 -54 -1 -30 -9 -68
-19 -87 -33 -62 -35 -69 -35 -97 0 -30 -40 -78 -55 -65 -4 5 -5 -1 0 -12 16
-42 16 -52 -1 -66 -16 -13 -17 -12 -10 6 6 16 5 17 -5 8 -7 -7 -12 -27 -11
-44 0 -18 -8 -45 -19 -60 -10 -15 -19 -32 -19 -39 0 -7 -11 -21 -25 -32 -14
-11 -25 -26 -25 -34 0 -8 -11 -27 -25 -42 -14 -15 -25 -35 -25 -44 0 -10 -6
-18 -14 -18 -11 0 -14 -11 -11 -45 3 -39 1 -45 -15 -45 -10 0 -22 5 -25 10 -3
6 -11 10 -16 10 -6 0 -7 -5 -4 -10 3 -5 1 -10 -4 -10 -6 0 -11 -5 -11 -10 0
-14 -43 -80 -52 -80 -12 0 -48 -34 -48 -45 0 -5 -21 -28 -47 -50 -26 -22 -57
-50 -69 -62 -12 -13 -25 -23 -29 -23 -4 0 -18 -10 -31 -23 -42 -39 -64 -57
-73 -57 -4 0 -29 -16 -54 -35 -25 -19 -53 -35 -62 -35 -8 0 -20 -11 -25 -25
-5 -14 -21 -27 -37 -31 -15 -4 -32 -13 -38 -19 -5 -7 -25 -15 -44 -19 -19 -3
-43 -14 -53 -22 -9 -9 -37 -21 -60 -25 -24 -5 -49 -11 -56 -12 -8 -2 -17 -9
-21 -15 -4 -6 -31 -18 -61 -25 -30 -8 -55 -18 -57 -24 -2 -5 -17 -8 -33 -5
-20 3 -32 -1 -36 -11 -3 -10 -27 -17 -72 -22 -37 -4 -72 -11 -79 -17 -7 -5
-37 -12 -68 -14 -31 -2 -63 -8 -73 -13 -9 -4 -23 -6 -29 -4 -7 3 -38 -3 -68
-12 -31 -8 -59 -14 -64 -11 -4 3 -23 1 -42 -4 -19 -5 -59 -11 -90 -14 -30 -3
-62 -8 -70 -10 -8 -3 -34 -8 -59 -10 -72 -8 -245 -35 -323 -51 -40 -8 -92 -17
-117 -19 -48 -6 -154 -22 -400 -60 -137 -22 -284 -43 -360 -52 -83 -10 -175
-24 -240 -38 -41 -9 -91 -16 -111 -16 -20 0 -60 -4 -90 -10 -107 -19 -235 -39
-294 -45 -33 -4 -65 -11 -72 -17 -6 -5 -74 -11 -149 -14 -76 -3 -143 -9 -149
-14 -6 -5 -71 -19 -145 -30 -188 -29 -376 -58 -434 -65 -165 -23 -219 -33
-226 -46 -12 -19 -8 -21 57 -25 153 -9 223 -17 223 -27 0 -6 22 -7 61 -3 36 4
65 3 73 -3 6 -5 70 -15 141 -21 72 -6 137 -13 145 -16 14 -5 53 -9 165 -18 60
-5 135 -17 179 -28 21 -5 71 -11 110 -13 80 -3 270 -21 331 -30 22 -4 60 -7
86 -9 25 -1 51 -6 57 -10 7 -4 56 -9 110 -10 53 -1 103 -5 109 -9 6 -4 14 -3
17 2 7 11 75 3 93 -11 6 -5 76 -15 155 -23 79 -8 179 -19 223 -26 44 -6 110
-13 146 -14 36 -1 71 -5 78 -9 7 -5 60 -12 119 -17 59 -4 132 -11 162 -13 30
-3 62 -7 70 -10 8 -4 38 -8 65 -11 67 -6 124 -12 220 -25 44 -5 100 -11 124
-13 33 -3 47 -9 52 -23 6 -16 8 -16 8 -2 1 15 9 16 54 12 28 -3 67 -10 86 -16
26 -8 35 -7 42 3 7 11 13 10 27 -8 9 -12 29 -25 45 -29 15 -3 30 -10 33 -15 3
-5 11 -9 17 -9 7 0 6 4 -3 10 -8 5 -12 12 -8 15 10 10 63 -20 60 -33 -2 -9 18
-12 76 -9 89 4 187 -18 187 -43 0 -8 14 -18 30 -23 17 -5 48 -17 70 -28 22
-10 55 -19 73 -19 20 0 34 -6 37 -15 15 -48 15 -48 30 -35 8 6 23 9 33 6 13
-4 22 -1 26 9 8 21 29 19 44 -5 7 -11 20 -20 30 -20 10 -1 5 -6 -13 -14 l-30
-13 30 -15 c37 -18 110 -25 101 -9 -12 20 4 12 30 -14 16 -16 32 -24 44 -20
12 4 19 -1 23 -15 3 -12 13 -20 26 -20 12 0 21 -4 21 -10 0 -5 11 -10 25 -10
16 0 25 -6 25 -15 0 -8 -5 -15 -12 -15 -6 0 -8 -3 -5 -6 4 -4 13 -2 20 5 11 9
17 7 28 -5 8 -10 26 -24 40 -33 63 -39 238 -203 239 -223 0 -13 47 -58 60 -58
7 0 10 -7 6 -15 -3 -8 -1 -15 4 -15 6 0 10 -6 10 -13 0 -7 9 -19 20 -27 11 -8
20 -25 20 -38 0 -15 4 -21 12 -16 8 5 9 2 5 -10 -4 -11 -1 -19 9 -23 27 -10
59 -48 56 -66 -2 -9 2 -17 8 -17 6 0 16 -13 21 -30 6 -16 15 -28 19 -25 12 7
20 -35 14 -72 -4 -28 -2 -32 25 -38 32 -7 44 -19 46 -45 4 -43 6 -50 16 -50 7
0 18 8 25 17 10 15 12 9 7 -40 -4 -52 -3 -60 16 -74 15 -10 20 -21 16 -34 -10
-32 4 -61 26 -54 13 4 19 2 19 -8 0 -10 -7 -13 -20 -10 -15 4 -20 0 -20 -13 0
-26 14 -46 30 -42 8 2 15 -3 16 -9 1 -7 2 -17 3 -23 0 -5 10 -10 21 -10 11 0
20 -4 20 -10 0 -5 -6 -10 -13 -10 -17 0 -39 -37 -27 -45 6 -3 15 -3 20 0 6 3
14 -5 19 -18 6 -14 14 -28 19 -31 17 -10 37 -175 24 -188 -14 -14 -16 -42 -2
-33 6 4 7 -1 3 -11 -5 -13 -2 -15 14 -10 17 6 19 2 15 -26 -2 -18 -9 -38 -14
-45 -6 -7 -5 -14 2 -18 8 -5 7 -11 -1 -22 -9 -11 -10 -16 -1 -22 7 -4 10 -35
8 -89 -3 -67 -1 -82 10 -78 7 3 16 1 20 -5 9 -15 -24 -59 -45 -59 -10 0 -26
-11 -34 -24 -13 -19 -13 -26 -3 -37 8 -8 16 -30 19 -51 5 -31 2 -37 -16 -42
-22 -5 -22 -5 -2 -21 20 -14 20 -15 -2 -21 -30 -8 -33 -54 -3 -54 12 0 20 -7
20 -16 0 -9 -6 -14 -12 -12 -14 5 -41 -39 -32 -53 3 -5 0 -9 -6 -9 -8 0 -9
-10 -5 -29 3 -17 2 -32 -5 -36 -5 -3 -7 -11 -4 -17 8 -12 -16 -58 -30 -58 -6
0 -12 -10 -12 -22 -4 -52 -8 -74 -17 -86 -6 -7 -7 -15 -4 -18 3 -4 -9 -19 -26
-36 -29 -26 -30 -30 -14 -39 23 -14 22 -39 -3 -39 -13 0 -22 -9 -26 -25 -3
-14 -10 -25 -14 -25 -5 0 -11 -14 -15 -30 -4 -18 -13 -30 -23 -30 -13 0 -12
-4 5 -23 11 -12 18 -28 16 -34 -7 -19 -20 -16 -26 7 -8 32 -25 23 -22 -12 2
-18 4 -33 5 -33 1 0 3 -10 6 -23 3 -15 -4 -31 -21 -48 -14 -14 -25 -31 -25
-38 0 -18 -31 -30 -40 -16 -5 8 -9 6 -13 -4 -4 -9 -3 -16 1 -16 4 0 9 -11 10
-25 1 -20 -2 -25 -16 -23 -12 2 -17 -4 -17 -22 0 -18 -6 -26 -22 -28 -13 -2
-23 -10 -23 -17 0 -8 -8 -18 -17 -24 -14 -8 -15 -12 -4 -25 11 -14 11 -16 -2
-16 -9 0 -21 -8 -26 -17 -10 -17 -10 -16 -11 2 -1 15 -3 16 -7 5 -3 -8 -11
-18 -17 -22 -7 -5 -4 -8 7 -8 10 0 17 -6 15 -12 -3 -7 -13 -13 -24 -13 -11 0
-19 -7 -19 -17 0 -20 -8 -29 -28 -32 -9 -1 -24 -13 -35 -26 -22 -27 -52 -35
-52 -13 0 11 -6 8 -19 -8 -11 -14 -15 -26 -9 -28 6 -2 5 -7 -3 -13 -11 -7 -11
-11 -1 -15 19 -8 14 -23 -8 -23 -28 0 -65 -26 -127 -88 -28 -29 -58 -52 -65
-51 -26 3 -38 -1 -38 -14 0 -7 -16 -19 -35 -26 -19 -7 -35 -16 -35 -21 0 -13
-72 -60 -82 -54 -4 3 -8 0 -8 -5 0 -6 -7 -11 -15 -11 -8 0 -14 -6 -12 -12 1
-7 -5 -14 -13 -14 -29 -3 -60 -16 -60 -26 0 -5 -4 -6 -10 -3 -5 3 -10 -1 -10
-9 0 -9 -7 -16 -16 -16 -8 0 -32 -11 -52 -25 -21 -14 -51 -25 -70 -25 -25 0
-33 -4 -29 -14 3 -8 -1 -17 -9 -20 -8 -3 -14 1 -14 9 0 8 -5 15 -11 15 -6 0
-8 -7 -5 -15 3 -10 -1 -18 -12 -22 -9 -4 -28 -15 -41 -25 -13 -10 -33 -18 -45
-18 -11 0 -34 -7 -50 -15 -16 -9 -35 -14 -42 -11 -6 2 -21 -8 -32 -24 -15 -20
-27 -27 -42 -23 -11 3 -27 -1 -36 -8 -9 -7 -25 -15 -37 -16 -12 -2 -32 -10
-45 -19 -12 -8 -31 -12 -42 -9 -10 3 -33 -1 -49 -9 -17 -9 -39 -16 -50 -16
-11 0 -26 -6 -33 -14 -8 -7 -35 -16 -62 -20 -26 -4 -62 -16 -80 -27 -17 -10
-45 -19 -63 -19 -17 0 -35 -4 -38 -10 -3 -6 -25 -10 -49 -10 -28 0 -48 -6 -59
-17 -9 -11 -29 -18 -49 -17 -18 1 -41 -3 -50 -8 -31 -15 -98 -21 -98 -8 0 10
-3 10 -15 0 -8 -7 -15 -10 -15 -7 0 3 -21 -3 -46 -14 -31 -14 -49 -17 -57 -10
-8 6 -18 6 -27 1 -20 -13 -39 -12 -20 0 11 8 7 9 -15 4 -42 -9 -48 -14 -36
-28 8 -10 0 -13 -37 -14 -54 -1 -72 -4 -90 -16 -8 -4 -35 -10 -60 -13 -26 -3
-55 -9 -65 -14 -9 -6 -22 -7 -28 -4 -5 4 -33 0 -62 -8 -82 -24 -178 -39 -229
-38 -38 2 -49 -2 -58 -19 -6 -11 -16 -20 -23 -20 -7 0 -6 4 3 10 29 19 -5 10
-37 -10 -18 -11 -33 -16 -33 -12 0 5 -26 9 -57 9 -32 0 -50 -2 -40 -4 40 -10
12 -23 -51 -23 -54 0 -73 -4 -89 -19 -12 -11 -24 -17 -27 -14 -3 3 -20 7 -38
8 -18 1 -27 0 -20 -2 23 -9 12 -23 -13 -17 -14 3 -31 1 -39 -5 -10 -8 -21 -8
-40 -1 -36 13 -39 13 -32 -6 3 -8 2 -13 -3 -10 -5 3 -31 -1 -57 -9 -61 -18
-64 -18 -64 0 0 12 -6 11 -32 -5 -18 -10 -54 -21 -79 -23 -25 -2 -50 -6 -55
-9 -5 -3 -34 -9 -64 -12 -30 -4 -59 -11 -64 -16 -6 -6 -32 -10 -59 -10 -29 0
-46 -4 -42 -10 3 -5 -3 -10 -14 -10 -10 0 -27 -3 -37 -7 -14 -5 -16 -2 -10 20
3 15 3 28 -1 28 -36 6 -51 9 -74 15 -20 4 -33 -1 -60 -25 -35 -32 -64 -40 -72
-18 -4 8 -8 9 -14 1 -9 -12 -93 -6 -93 6 0 5 10 11 23 13 19 4 19 4 -5 6 -24
1 -28 -4 -34 -36 l-7 -36 -13 25 c-14 27 -40 42 -55 32 -6 -3 -5 -11 2 -20 9
-11 9 -14 -1 -14 -7 0 -23 -11 -36 -25 -25 -28 -64 -34 -64 -10 0 8 -9 15 -20
15 -11 0 -20 -4 -20 -10 0 -5 5 -10 10 -10 6 0 10 -5 10 -10 0 -7 -13 -8 -34
-4 -19 3 -43 1 -53 -5 -12 -7 -14 -10 -4 -11 8 0 11 -3 8 -7 -4 -3 -20 8 -36
25 -27 28 -35 31 -88 29 -32 -1 -63 -6 -70 -10 -7 -4 -16 0 -21 9 -8 15 -12
14 -33 -7 -15 -15 -24 -19 -27 -10 -3 9 -9 7 -21 -6 -16 -16 -16 -19 -2 -30
14 -10 13 -11 -6 -6 -14 3 -23 1 -23 -6 0 -11 -57 -4 -76 10 -5 5 -32 2 -59
-6 -27 -9 -57 -13 -67 -9 -12 3 -18 0 -18 -9 0 -19 -25 -29 -55 -21 -13 3 -30
2 -37 -2 -14 -10 -41 -13 -103 -15 -22 0 -50 -7 -62 -15 -12 -8 -36 -14 -53
-14 -17 0 -41 -5 -53 -12 -12 -6 -51 -19 -87 -28 -36 -10 -78 -22 -95 -28 -16
-6 -58 -19 -92 -29 -58 -17 -63 -20 -63 -47 0 -24 -2 -27 -15 -16 -29 24 -25
4 4 -24 19 -18 27 -34 24 -47 -3 -10 -9 -19 -13 -19 -13 0 -18 -49 -6 -54 6
-2 1 -5 -12 -5 -13 -1 -20 3 -17 9 3 6 0 10 -9 10 -8 0 -17 6 -20 13 -4 9 -8
9 -11 1 -3 -7 -15 -9 -27 -6 -14 3 -19 1 -14 -6 16 -26 -79 -98 -114 -87 -11
3 -20 2 -20 -4 0 -10 -102 -52 -133 -55 -10 0 -22 -8 -27 -16 -5 -8 -12 -12
-15 -8 -3 3 -48 -16 -100 -43 -52 -27 -100 -49 -108 -49 -8 0 -35 -11 -61 -25
-26 -14 -54 -25 -62 -25 -9 0 -18 -9 -21 -20 -3 -11 -12 -20 -19 -20 -8 0 -14
-6 -14 -14 0 -7 -18 -26 -41 -42 -23 -15 -36 -30 -30 -32 19 -6 12 -22 -9 -22
-12 0 -20 -7 -21 -17 -2 -48 -7 -67 -18 -71 -6 -2 -19 -11 -27 -20 -15 -14
-15 -17 2 -29 17 -13 17 -14 -4 -29 -12 -8 -22 -21 -21 -27 4 -32 -3 -57 -21
-79 -55 -65 -70 -87 -70 -102 0 -9 -3 -16 -8 -16 -4 0 -16 -16 -26 -35 -19
-34 -74 -75 -102 -75 -9 0 -14 -11 -14 -30 0 -25 -4 -30 -25 -30 -16 0 -25 -6
-25 -15 0 -8 -5 -15 -10 -15 -6 0 -18 -16 -27 -35 -9 -19 -20 -32 -24 -29 -4
2 -18 -9 -30 -26 -13 -16 -27 -30 -33 -30 -5 0 -18 -8 -28 -17 -17 -15 -20
-15 -28 -3 -6 9 -10 10 -10 3 0 -6 -13 -14 -30 -18 -16 -4 -30 -11 -30 -17 0
-6 6 -8 14 -5 9 4 13 0 11 -11 -2 -9 -4 -25 -4 -34 -1 -10 -8 -18 -17 -18 -14
0 -14 3 -4 15 14 16 10 18 -14 9 -9 -3 -16 -15 -16 -25 0 -10 -7 -19 -15 -19
-8 0 -15 5 -15 11 0 16 -35 6 -36 -11 -3 -44 -4 -45 -19 -26 -12 16 -15 17
-15 4 0 -10 -12 -18 -32 -22 -21 -4 -40 -17 -53 -36 -11 -16 -26 -30 -32 -30
-7 0 -13 -8 -13 -17 0 -15 -2 -14 -15 3 -15 19 -16 19 -14 -1 2 -34 -1 -46
-10 -41 -5 3 -14 -1 -21 -9 -7 -8 -21 -15 -31 -15 -10 0 -21 -4 -24 -10 -11
-18 -25 -11 -25 12 0 21 -1 21 -13 3 -8 -10 -19 -15 -26 -11 -6 4 -14 0 -18
-9 -4 -13 -13 -15 -34 -11 -30 6 -37 -2 -19 -20 7 -7 7 -19 1 -35 -5 -13 -10
-19 -10 -13 -1 16 -50 24 -79 13 -13 -5 -26 -18 -29 -28 -2 -10 -15 -24 -28
-31 -20 -11 -26 -10 -39 3 -18 18 -56 11 -56 -9 0 -17 -27 -19 -33 -1 -3 9 -7
9 -18 0 -8 -6 -35 -10 -62 -8 -43 2 -47 1 -41 -17 5 -17 3 -19 -15 -13 -12 4
-21 2 -21 -4 0 -6 8 -11 18 -12 9 0 4 -5 -13 -10 -36 -10 -75 -2 -75 17 0 16
-66 19 -89 5 -9 -6 -22 -6 -31 -1 -19 10 -62 2 -55 -10 3 -4 -13 -7 -35 -6
-22 0 -40 4 -40 7 0 3 -23 6 -50 7 -28 0 -60 4 -70 7 -12 4 -20 2 -20 -4 0
-15 -27 -14 -34 2 -5 10 -7 10 -12 0 -8 -18 -44 -16 -66 4 -15 14 -21 14 -27
4 -6 -10 -17 -10 -48 -2 -22 6 -54 8 -71 5 -24 -5 -33 -2 -38 9 -4 11 -14 14
-39 10 -26 -4 -38 0 -56 18 -14 14 -38 24 -59 26 -62 4 -84 9 -88 21 -2 7 -17
12 -32 12 -16 0 -32 5 -35 10 -3 6 -15 10 -26 10 -10 0 -19 7 -19 15 0 9 -9
15 -23 15 -13 0 -29 6 -36 13 -10 10 -15 8 -27 -7 -8 -11 -14 -14 -14 -8 0 7
-3 11 -7 11 -26 -4 -45 5 -78 37 -25 24 -50 38 -78 42 -39 7 -42 10 -43 40 0
28 -14 62 -14 35 0 -6 -10 -9 -22 -6 -13 3 -20 2 -16 -2 9 -9 -9 -35 -23 -35
-5 0 -9 9 -9 20 0 13 -9 22 -27 26 -33 9 -44 19 -61 57 -7 16 -25 33 -42 39
-17 5 -30 14 -30 18 0 4 -6 8 -12 7 -43 -1 -57 4 -52 18 10 24 -138 158 -163
148 -9 -4 -14 -2 -10 3 9 15 -4 28 -38 39 -37 13 -43 38 -13 54 13 6 15 9 6 7
-10 -3 -18 -1 -18 4 0 6 -7 10 -15 10 -27 0 -67 48 -60 71 6 17 3 19 -20 13
-30 -7 -54 16 -55 54 0 15 -7 26 -21 29 -12 4 -22 17 -26 34 -5 25 -8 27 -25
18 -11 -6 -18 -7 -15 -2 4 6 -3 19 -13 31 -11 12 -20 27 -21 34 0 7 -4 4 -9
-7 -7 -16 -9 -17 -9 -3 -1 9 4 20 9 23 15 10 12 35 -5 35 -8 0 -15 8 -15 18 0
9 -13 26 -29 37 -24 15 -29 24 -24 46 3 16 0 30 -8 34 -8 5 -10 4 -5 -3 5 -8
1 -10 -9 -6 -12 5 -14 14 -10 34 5 22 0 34 -25 58 -17 17 -34 33 -38 34 -4 2
-7 11 -6 21 0 9 -3 17 -8 17 -4 0 -8 9 -8 21 0 11 4 18 9 15 5 -4 6 4 3 16 -5
19 -7 20 -10 5 -2 -9 -10 -17 -18 -17 -17 0 -17 5 -2 30 14 22 2 41 -13 20 -7
-11 -9 -2 -6 30 5 50 -7 95 -24 85 -7 -5 -8 4 -4 28 4 21 1 50 -7 73 -10 29
-10 38 -1 41 8 3 4 13 -11 30 -14 14 -22 32 -19 39 3 8 0 14 -7 14 -8 0 -10 8
-5 22 12 40 14 103 2 110 -14 8 -23 193 -11 230 4 13 1 16 -9 12 -22 -8 -28
-58 -18 -149 4 -44 4 -81 -1 -83 -4 -2 -8 -17 -8 -33 0 -17 -6 -32 -15 -36
-24 -8 -108 39 -123 70 -8 16 -21 27 -33 27 -16 0 -18 -5 -13 -26 7 -25 5 -27
-22 -20 -16 4 -40 9 -54 12 -92 16 -147 26 -160 30 -8 3 -17 5 -20 5 -3 0 -14
6 -25 13 -27 17 -85 28 -85 16 0 -6 -5 -10 -10 -10 -6 0 -10 7 -8 16 2 10 -3
19 -9 21 -7 3 -13 -1 -13 -7 0 -9 -4 -9 -16 1 -9 7 -35 15 -57 16 -24 2 -45 9
-50 18 -4 8 -16 15 -25 15 -10 0 -22 4 -28 8 -9 8 -78 26 -146 37 -30 5 -38 3
-38 -10 0 -8 -2 -15 -5 -15 -18 0 -142 34 -149 41 -6 5 -24 9 -42 9 -17 0 -37
6 -43 14 -7 8 -27 18 -44 21 -41 8 -98 25 -117 35 -8 4 -65 19 -125 34 -61 15
-119 31 -130 36 -33 14 -115 38 -215 65 -52 13 -96 29 -98 35 -2 5 -17 10 -33
10 -17 0 -39 5 -50 11 -11 5 -35 11 -54 13 -19 2 -40 8 -47 13 -7 5 -35 16
-63 22 -27 7 -57 15 -65 18 -8 4 -24 8 -35 10 -10 2 -28 9 -40 17 -11 7 -45
16 -75 19 -31 4 -60 13 -66 22 -6 8 -21 15 -34 15 -12 0 -47 7 -78 16 -59 16
-72 20 -135 48 -20 8 -56 19 -78 22 -23 4 -58 15 -77 24 -20 10 -41 16 -47 14
-6 -3 -25 2 -41 11 -16 8 -39 15 -52 15 -13 0 -20 4 -17 10 5 9 -15 15 -37 11
-4 0 -20 4 -35 10 -15 6 -46 13 -67 16 -22 2 -51 12 -65 22 -14 10 -46 21 -71
25 -24 4 -47 12 -51 18 -4 5 -19 11 -35 12 -16 2 -39 8 -51 14 -12 7 -31 12
-42 12 -15 0 -19 4 -14 18 6 14 4 15 -9 4 -13 -10 -18 -9 -28 4 -8 8 -22 13
-32 11 -10 -3 -16 -1 -12 4 3 5 0 9 -6 9 -7 0 -9 7 -6 16 5 12 1 14 -17 8 -36
-13 -67 -7 -86 15 -11 12 -25 19 -34 16 -8 -4 -17 1 -21 10 -3 9 -10 13 -16
10 -5 -3 -16 -3 -22 2 -7 4 -17 8 -23 8 -5 0 -28 7 -50 14 -38 14 -39 15 -15
22 l25 7 -26 1 c-48 2 -87 13 -106 30 -10 9 -38 23 -63 30 -41 13 -95 46 -128
78 -7 7 -25 13 -40 13 -22 0 -24 2 -12 11 12 9 11 10 -7 6 -13 -3 -26 -1 -29
4 -3 5 -14 9 -24 9 -11 0 -40 21 -66 48 -43 43 -48 45 -55 27 -5 -13 -8 -15
-8 -5 -1 17 -35 50 -51 50 -5 0 -13 7 -18 15 -5 10 -24 17 -49 18 -23 0 -40 4
-38 7 5 8 -25 34 -48 43 -9 3 -17 13 -17 22 0 8 -5 15 -11 15 -17 0 -69 47
-61 55 4 4 0 6 -8 4 -8 -2 -28 4 -45 13 -16 8 -35 13 -42 11 -7 -3 -9 3 -6 16
3 12 1 21 -6 21 -6 0 -11 7 -11 15 0 21 -20 19 -21 -2 0 -14 -2 -13 -9 4 -6
14 -15 21 -24 17 -9 -4 -23 7 -38 30 -13 19 -35 40 -50 47 -15 6 -29 17 -32
25 -3 8 -12 14 -21 14 -23 0 -68 48 -61 65 5 13 -5 19 -26 16 -4 0 -29 21 -55
48 -51 51 -88 75 -102 67 -5 -3 -14 1 -21 9 -10 12 -9 16 4 21 19 7 21 24 4
24 -7 0 -26 12 -43 26 -16 14 -24 23 -17 19 7 -4 12 0 12 10 0 11 -5 15 -15
11 -8 -3 -14 -1 -12 5 1 6 -18 20 -42 32 -33 16 -51 35 -70 70 -14 27 -34 50
-46 53 -13 3 -26 19 -33 38 -7 19 -29 45 -52 61 -23 16 -41 37 -42 49 -2 32
-4 39 -17 67 -10 20 -18 25 -37 21 -19 -3 -24 0 -24 16 0 20 -15 36 -35 37 -5
1 -9 6 -8 13 2 7 -2 12 -7 12 -13 0 -36 51 -39 85 0 8 -8 15 -17 15 -10 0 -13
6 -9 19 3 10 -1 23 -8 29 -8 7 -20 30 -27 52 -12 36 -21 45 -42 41 -5 0 -8 5
-8 13 0 8 -5 16 -11 18 -6 2 -14 19 -18 38 -4 23 -17 42 -39 56 -20 14 -27 24
-20 27 10 3 10 9 1 25 -8 13 -9 23 -3 27 16 10 12 30 -10 55 -11 13 -20 27
-20 32 0 4 -4 8 -10 8 -5 0 -10 -10 -10 -22 0 -19 -2 -20 -10 -8 -15 24 -12
60 7 67 14 5 13 8 -5 14 -15 6 -22 17 -22 33 0 14 -4 27 -9 30 -5 3 -8 24 -7
45 1 22 -2 38 -6 35 -4 -3 -8 1 -8 9 0 22 -27 41 -33 25 -3 -7 -4 1 -3 18 2
17 10 45 19 63 15 30 15 32 -6 43 -42 22 -59 48 -32 48 8 0 15 5 15 10 0 6
-10 10 -22 10 -13 0 -18 4 -13 8 12 8 17 70 8 92 -7 15 -10 45 -16 125 -1 22
1 55 6 73 6 25 4 40 -8 58 -13 20 -13 24 -1 24 8 0 18 5 21 10 4 7 -2 9 -19 4
-32 -8 -43 14 -25 48 18 31 22 71 6 61 -7 -4 -18 -8 -26 -10 -8 -1 -17 -7 -21
-13 -9 -14 -20 37 -20 90 0 24 5 40 14 43 10 4 12 14 8 29 l-6 23 -7 -25 c-6
-20 -7 -17 -8 18 -1 26 3 41 9 37 6 -4 10 9 11 32 2 190 22 357 43 379 11 10
16 27 13 41 -2 12 0 23 5 23 5 0 7 3 4 8 -2 4 7 48 21 97 13 50 25 102 24 117
0 14 6 32 14 38 8 7 17 27 21 46 3 19 11 34 16 34 5 0 8 6 5 13 -2 6 13 44 34
84 22 39 39 85 39 101 0 16 6 35 14 41 7 6 16 25 20 41 3 18 12 30 21 30 9 0
14 4 10 10 -3 5 -2 17 3 27 6 10 16 32 23 48 7 17 21 39 30 50 10 11 22 39 27
62 8 33 58 109 102 153 3 3 14 21 24 40 28 52 116 170 127 170 5 0 9 6 9 14 0
24 24 61 40 61 8 0 19 10 25 23 5 12 13 22 17 22 5 0 8 5 8 11 0 16 124 161
243 284 59 61 107 115 107 120 0 6 -12 24 -27 41 -30 32 -37 42 -132 169 -32
44 -66 87 -74 96 -8 10 -28 39 -43 65 -39 65 -45 75 -75 120 -50 75 -86 141
-104 187 -10 26 -22 47 -26 47 -5 0 -9 7 -9 15 0 8 -4 15 -9 15 -5 0 -12 13
-16 30 -4 16 -11 32 -16 35 -5 4 -9 15 -9 26 0 10 -4 19 -10 19 -5 0 -10 6
-10 14 0 8 -9 31 -19 53 -11 21 -29 63 -41 93 -11 30 -25 64 -30 75 -8 18 -33
102 -47 163 -3 12 -9 22 -14 22 -5 0 -9 11 -9 25 0 14 -4 33 -10 43 -8 16 -50
200 -55 247 -2 11 -7 36 -12 55 -5 19 -11 62 -12 95 -1 33 -6 71 -11 85 -35
94 -32 633 5 847 9 54 19 105 22 113 4 8 7 29 9 45 5 54 22 149 37 210 29 111
38 140 53 167 8 15 13 30 12 35 -3 12 24 87 34 94 5 3 9 22 10 43 1 22 7 40
15 43 7 3 12 10 11 17 -4 15 32 106 42 106 4 0 10 19 14 42 4 23 10 45 14 48
11 8 42 70 42 84 0 8 9 25 20 39 11 14 20 34 20 45 0 10 9 30 19 44 11 13 31
49 45 79 37 77 67 131 94 163 12 16 22 37 22 47 0 10 8 24 18 31 19 15 37 41
52 76 5 12 28 46 50 76 22 29 40 60 40 69 0 10 7 17 15 17 8 0 15 6 15 13 0 8
9 22 20 32 11 10 20 23 20 29 0 6 12 25 28 41 85 93 99 127 67 159 -8 8 -15
21 -15 30 0 8 -5 18 -11 22 -6 3 -8 17 -5 30 4 16 2 23 -6 22 -13 -3 -66 97
-67 128 -1 12 -14 39 -29 60 -15 21 -33 64 -40 94 -7 30 -19 61 -26 70 -13 15
-26 54 -80 230 -45 147 -58 194 -63 230 -3 19 -9 43 -14 52 -5 9 -9 30 -9 47
0 16 -5 42 -11 58 -17 43 -49 242 -64 388 -3 33 -8 74 -11 90 -9 45 -11 601
-2 670 4 33 12 107 19 165 7 58 16 110 21 116 4 6 6 18 3 26 -6 15 36 234 53
278 5 14 17 63 26 109 10 47 23 96 31 111 7 14 16 44 20 65 6 39 11 55 33 105
6 14 16 44 22 67 6 23 15 45 20 48 5 3 16 31 25 63 17 60 42 122 76 185 11 21
18 41 15 46 -3 4 3 17 14 28 10 12 16 24 13 27 -4 3 1 14 10 24 9 10 18 27 20
38 7 36 25 69 49 92 15 13 25 34 26 52 1 38 12 57 22 40 5 -8 14 5 25 34 10
25 24 46 31 46 8 0 14 5 14 10 0 6 -3 9 -7 8 -11 -4 -14 9 -6 28 5 13 8 13 15
2 7 -9 8 -7 5 10 -5 20 3 27 26 23 9 -1 9 26 0 32 -5 2 -3 3 4 1 10 -2 17 10
38 71 l7 20 9 -20 c8 -16 8 -15 4 8 -4 19 -1 29 10 34 9 3 14 12 11 20 -3 8
-2 12 3 8 14 -8 61 53 54 70 -4 11 -1 13 12 9 14 -6 16 -3 10 16 -4 13 -3 20
2 17 5 -3 19 19 32 49 19 43 27 52 37 43 11 -9 14 -6 14 15 0 20 5 26 21 26
15 0 19 5 15 15 -4 11 3 19 21 26 18 7 23 13 15 18 -9 5 -7 13 8 29 11 11 20
26 20 32 0 5 4 10 9 10 5 0 32 23 60 51 37 37 50 57 46 70 -5 14 -2 17 9 13
11 -4 16 -1 16 10 0 9 4 15 9 14 11 -4 49 38 56 63 4 11 11 19 16 19 6 0 7 5
3 12 -5 8 -2 9 9 5 11 -4 17 -1 17 8 0 7 12 23 26 34 15 12 22 21 15 21 -6 0
-11 4 -11 10 0 5 6 7 13 5 17 -6 30 5 44 38 7 15 19 27 28 27 8 0 15 5 15 11
0 5 4 8 9 5 5 -3 14 8 21 25 7 17 24 37 37 46 12 8 23 19 23 24 0 5 18 26 40
46 24 21 39 42 36 50 -4 8 -1 11 5 8 6 -4 13 3 16 15 4 15 11 20 24 17 11 -3
17 -1 13 4 -3 5 1 9 9 9 17 0 63 48 54 56 -3 4 -2 15 4 26 6 11 13 18 15 15 3
-3 24 16 47 41 23 25 67 68 97 96 30 28 73 68 95 89 22 22 51 45 65 53 14 7
36 29 50 48 14 20 33 38 42 41 9 3 28 19 42 36 14 16 30 29 36 29 6 0 29 17
49 38 47 46 95 87 114 98 8 5 30 21 48 36 19 15 43 34 54 43 19 16 19 16 -5
10 -14 -4 -29 -13 -35 -19 -5 -7 -30 -25 -55 -41 -24 -15 -51 -35 -59 -43 -8
-8 -27 -19 -43 -24 -17 -6 -28 -17 -28 -29 0 -10 -6 -19 -12 -19 -17 -1 -58
-35 -58 -49 0 -6 -6 -11 -12 -11 -7 0 -31 -18 -53 -40 -22 -21 -44 -39 -48
-40 -5 0 -14 -6 -22 -12 -30 -30 -54 -46 -74 -53 -12 -3 -21 -11 -21 -16 0
-13 -68 -44 -77 -35 -5 4 0 13 9 20 10 7 15 16 11 19 -3 4 2 16 11 26 10 11
19 31 20 45 0 14 4 26 8 26 8 0 78 68 78 75 0 4 -5 15 -10 26 -7 12 -7 19 -1
19 5 0 16 12 23 27 7 14 22 31 33 37 11 6 22 12 24 13 2 2 -2 10 -10 20 -12
15 -12 16 4 10 18 -7 24 7 7 18 -5 3 -10 11 -10 16 0 6 4 8 9 5 5 -4 13 8 16
26 4 18 12 39 17 46 14 16 39 62 80 142 18 36 37 68 43 72 6 5 5 8 -3 8 -10 0
-10 4 0 23 7 12 19 26 27 31 9 6 10 10 3 15 -14 9 22 71 41 71 7 0 23 28 36
63 14 34 35 73 48 88 13 14 23 32 23 41 0 8 7 21 15 28 8 7 15 16 15 21 0 5
15 31 33 57 19 26 37 59 40 75 4 15 12 27 17 27 6 0 10 9 10 20 0 11 5 20 10
20 6 0 10 8 10 19 0 10 7 24 15 31 8 7 13 16 10 20 -3 5 9 13 26 19 24 8 30
15 26 31 -3 10 1 24 9 31 8 6 14 17 14 25 0 7 6 19 13 26 7 7 21 33 31 58 9
25 31 62 47 82 16 20 29 41 29 46 0 5 16 26 35 46 20 21 35 48 35 61 0 13 7
30 15 39 8 8 15 22 15 30 0 9 4 16 9 16 14 0 64 112 63 140 -1 15 1 20 6 13 8
-13 24 13 58 97 10 25 23 52 30 60 21 27 54 90 54 105 0 8 5 15 12 15 6 0 9 3
5 6 -3 3 9 36 27 72 18 37 41 86 51 110 10 24 27 52 37 64 10 12 18 31 18 44
0 31 10 55 21 48 5 -3 9 3 9 13 0 10 14 47 30 81 17 35 30 70 30 78 0 14 4 23
34 81 9 17 16 42 16 56 0 14 7 32 15 41 8 8 15 19 15 25 0 6 5 11 11 11 6 0 8
8 4 20 -4 13 1 25 14 37 12 10 21 29 21 44 0 14 9 34 20 44 11 10 20 29 20 42
0 13 7 26 15 29 8 3 18 22 21 42 4 21 14 42 23 49 11 9 12 12 3 13 -8 0 -5 10
9 29 12 17 19 37 16 46 -4 9 -1 18 8 21 8 4 15 17 15 30 0 13 12 40 26 61 14
21 23 45 21 55 -3 9 6 26 19 39 27 25 32 44 9 35 -13 -4 -14 -2 -5 14 12 23
26 26 32 8 3 -7 8 11 11 41 4 30 11 59 17 65 5 5 10 24 10 42 0 17 7 37 16 45
11 9 14 22 10 41 -5 23 -2 28 14 28 15 0 20 7 20 29 0 17 4 32 9 35 4 3 11 24
15 46 3 22 11 40 16 40 16 0 40 57 40 95 0 19 4 35 10 35 5 0 7 13 4 29 -5 22
-1 32 20 48 14 12 26 30 26 41 0 11 7 22 15 26 8 3 14 11 13 18 -2 7 3 12 10
11 6 -2 12 1 12 6 0 5 -6 12 -12 15 -9 3 -8 8 5 16 9 6 17 22 17 36 0 18 5 24
17 22 13 -2 20 8 29 43 13 50 38 83 73 94 22 7 28 29 11 40 -5 3 -7 12 -4 20
4 8 10 12 16 9 9 -6 41 31 44 51 0 5 2 16 2 23 1 6 8 12 16 12 8 0 17 -6 19
-12 3 -7 6 1 6 19 1 26 4 30 21 26 16 -4 20 0 20 22 0 20 4 26 15 21 10 -3 15
1 15 13 0 14 10 20 40 25 39 6 54 28 28 40 -7 3 -1 4 15 1 33 -7 71 23 61 49
-5 12 -10 14 -19 6 -9 -8 -15 -8 -20 0 -3 5 -2 10 3 10 4 0 18 9 31 21 17 16
25 18 36 9 14 -12 65 -4 65 10 0 5 9 11 19 15 11 3 23 15 26 26 4 10 12 19 18
19 7 0 17 8 24 18 8 14 20 18 42 14 18 -2 31 0 31 6 0 6 8 12 17 14 10 2 18
12 18 23 0 15 7 20 25 20 14 1 28 -4 33 -10 5 -7 9 -6 15 2 4 6 14 11 22 11
47 -3 58 2 53 23 -5 18 -3 20 16 14 14 -4 23 -2 26 7 4 9 17 13 40 10 47 -6
85 5 85 23 0 19 19 19 26 0 4 -8 12 -15 20 -15 8 0 14 7 14 15 0 9 10 16 28
16 25 2 43 4 67 8 6 1 4 5 -4 10 -24 15 -3 29 38 25 28 -2 41 1 45 12 3 8 10
12 16 9 6 -4 8 -10 5 -15 -9 -15 27 -20 67 -9 26 6 42 17 45 30 7 25 23 25 23
-1 0 -22 20 -26 51 -10 13 7 25 7 37 1 13 -7 23 -6 31 2 9 9 14 9 19 0 5 -8
13 -7 27 4 14 11 16 17 8 20 -22 8 -14 25 10 21 12 -2 21 -9 19 -16 -2 -9 8
-12 30 -10 25 2 32 7 30 21 -2 11 4 17 18 17 21 0 28 -16 9 -22 -6 -2 9 -3 33
-3 23 0 48 3 54 7 15 10 52 -1 58 -18 3 -8 10 -14 16 -14 14 0 13 27 -2 33 -8
3 -7 6 4 6 9 1 20 -3 23 -9 11 -17 25 -11 25 11 0 16 5 20 20 16 11 -3 20 -1
20 5 0 5 -12 8 -27 6 -15 -2 -28 2 -30 10 -3 8 6 12 26 12 17 0 31 5 31 10 0
17 80 12 86 -5 4 -8 15 -15 25 -15 11 0 27 -15 39 -37 12 -21 18 -28 14 -15
-5 19 -2 23 13 22 33 -4 37 0 17 15 -19 14 -18 14 4 15 12 0 22 -4 22 -10 0
-5 9 -10 21 -10 19 0 19 -1 5 -16 -21 -21 -20 -22 9 -16 26 5 33 -6 14 -25
-15 -15 23 -27 56 -19 20 5 23 3 19 -11 -5 -16 -3 -15 10 1 9 11 16 23 16 28
0 4 5 8 11 8 6 0 9 -8 6 -17 -2 -10 -7 -25 -9 -33 -3 -8 -3 -12 -1 -7 9 14 35
7 29 -8 -4 -10 1 -15 14 -15 23 0 27 -18 5 -26 -21 -8 -1 -42 31 -54 15 -6 24
-18 24 -32 1 -21 2 -21 11 -5 7 13 7 22 0 31 -8 10 -7 25 4 56 18 52 18 50 0
50 -8 0 -15 5 -15 10 0 6 8 10 18 8 13 -2 16 3 14 21 -3 31 -6 34 -36 34 -25
0 -38 16 -32 40 1 6 1 9 -1 5 -10 -17 -23 -7 -23 17 0 14 -4 25 -9 25 -18 0
-21 50 -6 86 11 28 12 40 4 50 -7 9 -7 14 -1 14 5 0 15 -13 22 -29 6 -16 19
-32 27 -35 9 -4 14 -17 13 -33 -3 -42 -2 -45 19 -34 22 12 31 49 19 80 -4 13
-9 47 -9 77 -1 43 -5 55 -20 59 -11 4 -16 11 -13 17 4 6 1 14 -6 18 -8 5 -10
17 -6 36 6 22 9 25 17 13 5 -7 9 -24 9 -36 0 -13 5 -23 10 -23 13 0 13 33 0
46 -6 6 -13 33 -17 61 -5 47 -4 52 18 63 22 10 22 10 6 -4 -11 -8 -17 -24 -15
-38 2 -19 9 -23 38 -23 31 0 35 3 32 23 -2 20 0 21 11 10 8 -7 17 -24 20 -38
10 -38 22 -51 40 -44 12 4 17 18 17 44 0 35 2 37 26 32 20 -3 26 0 31 17 3 13
13 21 25 21 16 0 18 3 9 14 -9 10 -8 15 4 20 8 3 21 4 28 2 6 -3 25 -7 41 -11
23 -5 27 -8 15 -16 -10 -6 -6 -9 16 -9 23 0 27 3 15 10 -16 10 -16 10 54 13
25 1 56 -23 56 -43 0 -8 8 -7 25 4 14 9 31 13 38 9 7 -4 17 -8 22 -9 6 0 15
-2 22 -2 12 -2 53 -66 53 -83 0 -10 10 -24 43 -60 9 -10 17 -25 17 -33 0 -8 4
-17 9 -20 5 -3 7 -15 4 -26 -3 -11 0 -20 6 -20 5 0 8 -7 4 -16 -4 -11 1 -22
13 -31 19 -14 19 -14 0 -29 -20 -14 -20 -14 0 -29 10 -8 22 -15 25 -15 11 0
16 59 7 68 -5 5 1 17 13 28 l22 19 -5 -27 c-4 -22 -1 -28 13 -28 11 0 19 -4
19 -10 0 -5 -7 -7 -15 -4 -10 4 -15 0 -15 -11 0 -9 5 -13 10 -10 6 4 17 1 25
-5 12 -10 18 -10 29 -1 11 9 15 9 19 -1 3 -7 6 -2 6 11 1 19 5 22 22 18 25 -7
49 1 49 15 0 9 -42 8 -80 -3 -11 -3 -14 6 -15 36 0 30 4 41 18 43 10 2 17 -3
17 -12 0 -9 -4 -16 -10 -16 -5 0 -10 -4 -10 -8 0 -4 18 -8 41 -7 l41 0 -6 65
c-6 63 -5 64 9 32 16 -36 37 -35 34 1 -4 51 0 60 17 46 10 -8 12 -15 5 -17
-11 -4 -16 -42 -5 -42 4 0 13 8 21 18 13 15 14 14 9 -15 -5 -33 -5 -33 36 -33
40 0 41 0 23 -20 -14 -15 -15 -23 -6 -34 13 -15 11 -37 -3 -47 -10 -8 1 -29
15 -29 5 0 9 22 9 49 0 57 11 69 47 50 28 -15 60 -2 55 24 -1 9 2 18 8 22 13
8 13 52 0 60 -5 3 -10 19 -10 35 0 16 -7 33 -15 38 -13 7 -11 10 11 21 22 10
30 9 43 -3 10 -9 26 -13 39 -9 12 3 29 2 38 -1 15 -6 15 -9 -4 -26 -24 -22
-42 -26 -42 -8 0 6 -2 9 -5 6 -3 -3 -3 -13 1 -22 7 -17 34 -22 34 -6 0 6 5 10
10 10 14 0 12 -27 -2 -34 -7 -4 -3 -4 10 -2 16 3 22 -1 22 -15 0 -23 25 -25
34 -3 7 19 -1 34 -18 34 -8 0 -16 9 -19 20 -4 15 0 20 13 20 11 0 22 5 25 10
3 6 -1 10 -9 10 -9 0 -16 3 -16 8 0 8 -42 27 -81 36 -15 3 -30 14 -34 23 -9
21 -24 93 -19 93 22 0 32 -15 27 -41 -3 -18 -1 -29 6 -29 6 0 11 6 11 14 0 19
20 26 42 15 10 -6 19 -5 23 1 10 16 -5 31 -25 25 -10 -3 -21 -2 -23 3 -9 14 7
31 27 29 15 -2 22 7 28 33 4 19 5 41 3 48 -3 8 0 10 6 6 7 -4 9 -25 4 -60 l-6
-54 33 0 c22 0 28 3 20 9 -16 10 -6 81 11 81 6 0 8 21 4 60 -6 54 3 84 18 60
8 -12 45 -13 45 -1 0 5 -11 12 -25 15 -36 9 -31 27 5 20 23 -5 30 -3 30 10 0
9 5 16 10 16 6 0 10 11 10 25 0 14 5 25 10 25 6 0 10 6 10 13 0 8 12 19 26 25
24 12 25 32 1 32 -7 0 -13 9 -14 20 -2 23 25 28 33 6 3 -8 12 -12 19 -10 10 4
14 -8 14 -51 0 -31 4 -62 10 -69 9 -10 6 -15 -10 -19 -30 -8 -14 -27 24 -27
24 0 28 3 17 10 -15 10 -14 11 41 15 9 0 27 13 41 28 26 27 48 35 48 17 0 -5
-4 -10 -10 -10 -12 0 -10 -79 2 -86 4 -3 8 11 8 31 0 22 6 38 15 41 8 4 15 12
15 20 0 8 6 14 13 14 8 0 7 4 -3 10 -13 9 -13 10 0 10 13 0 13 2 0 9 -8 6 -18
7 -23 4 -4 -2 -16 -1 -25 3 -13 6 -9 9 17 13 25 5 35 12 37 29 2 12 -1 22 -7
22 -5 0 -7 -4 -4 -10 3 -5 -1 -10 -9 -10 -20 0 -27 13 -15 30 5 8 9 11 9 5 0
-5 7 -1 15 9 11 14 15 16 15 5 0 -19 58 -19 70 1 8 12 10 9 10 -11 0 -15 -7
-32 -15 -39 -10 -9 -15 -9 -15 -1 0 6 -5 11 -11 11 -6 0 -9 -21 -9 -52 1 -29
-1 -70 -5 -90 -5 -24 -4 -38 3 -38 12 0 22 24 22 51 0 10 5 19 10 19 6 0 10
-13 10 -29 0 -17 6 -31 16 -35 23 -9 34 -7 34 4 0 6 -7 10 -16 10 -8 0 -12 5
-9 10 3 6 15 10 27 10 17 0 20 5 16 30 -4 28 -3 30 29 30 23 0 33 5 33 15 0
18 -5 18 -32 4 -25 -14 -35 -4 -17 18 13 15 12 16 -6 9 -11 -5 -31 -11 -45
-14 -20 -4 -23 -3 -14 9 6 8 11 23 12 34 1 11 8 38 17 60 l15 40 -6 -47 c-7
-50 -1 -70 19 -62 7 3 12 26 12 64 0 53 -2 59 -20 57 -11 -1 -20 4 -20 11 0
13 -32 42 -46 42 -3 0 -4 -11 -1 -25 2 -14 8 -22 13 -19 5 3 9 -1 9 -8 0 -8
-9 -14 -20 -15 -11 -1 -20 4 -20 13 0 15 -12 19 -24 7 -3 -4 -14 -8 -24 -9
-11 -2 -6 7 15 25 31 26 31 27 13 39 -11 7 -29 12 -40 12 -24 0 -24 0 -5 36 8
16 15 42 15 57 0 17 4 26 11 22 6 -4 8 -13 5 -21z m132 14 c-3 -7 -13 -15 -24
-17 -16 -3 -17 -1 -5 13 16 19 34 21 29 4z m439 -20 c-3 -7 -5 -2 -5 12 0 14
2 19 5 13 2 -7 2 -19 0 -25z m213 23 c0 -5 11 -12 25 -15 14 -4 25 -11 25 -16
0 -13 -6 -13 -40 5 -29 15 -40 35 -20 35 6 0 10 -4 10 -9z m-735 -11 c3 -5 -1
-10 -9 -10 -9 0 -16 5 -16 10 0 6 4 10 9 10 6 0 13 -4 16 -10z m128 3 c-7 -2
-19 -2 -25 0 -7 3 -2 5 12 5 14 0 19 -2 13 -5z m117 -17 c0 -11 -19 -15 -25
-6 -3 5 1 10 9 10 9 0 16 -2 16 -4z m430 -16 c12 -8 9 -10 -13 -10 -16 0 -26
4 -22 10 8 12 16 12 35 0z m-230 -10 c0 -13 -20 -13 -40 0 -12 8 -9 10 13 10
15 0 27 -4 27 -10z m325 -30 c3 -5 1 -10 -4 -10 -6 0 -11 5 -11 10 0 6 2 10 4
10 3 0 8 -4 11 -10z m-958 -40 c6 -17 19 -30 28 -30 17 0 17 -18 -1 -64 -7
-18 4 -20 26 -6 10 6 11 10 3 10 -7 0 -13 7 -13 15 0 19 9 19 34 0 22 -16 15
-48 -9 -39 -8 3 -15 2 -15 -4 0 -6 -8 -8 -19 -5 -10 3 -22 0 -25 -5 -11 -19 6
-42 31 -42 13 0 22 -4 18 -10 -3 -5 -12 -7 -20 -3 -10 3 -15 -2 -15 -17 0 -14
-5 -20 -12 -16 -7 3 -20 9 -29 12 -9 3 -23 17 -30 31 -10 18 -19 23 -37 20
-17 -3 -26 0 -29 13 -4 14 -13 16 -49 12 -29 -3 -44 -1 -44 7 0 6 11 11 24 11
14 0 28 5 31 10 3 6 -1 10 -10 10 -9 0 -13 4 -10 10 7 12 42 -6 66 -34 16 -19
16 -19 29 5 8 13 12 42 11 63 -3 36 -1 38 13 27 14 -12 16 -9 16 22 0 44 20
42 37 -3z m506 18 c4 -13 1 -26 -6 -30 -15 -10 -66 -10 -51 0 6 4 16 17 23 30
15 28 27 28 34 0z m408 -2 c-7 -8 -10 -19 -7 -25 8 -12 -3 -41 -16 -41 -6 0
-8 13 -4 32 6 32 25 62 34 53 3 -2 -1 -11 -7 -19z m-41 -21 c0 -8 -4 -15 -10
-15 -5 0 -7 7 -4 15 4 8 8 15 10 15 2 0 4 -7 4 -15z m-1027 -42 c-5 -13 -7
-13 -21 0 -8 8 -11 20 -7 27 10 16 35 -7 28 -27z m1120 30 c-7 -2 -21 -2 -30
0 -10 3 -4 5 12 5 17 0 24 -2 18 -5z m-371 -25 c-9 -9 -15 -9 -24 0 -9 9 -7
12 12 12 19 0 21 -3 12 -12z m-152 -8 c0 -5 -4 -10 -10 -10 -5 0 -10 5 -10 10
0 6 5 10 10 10 6 0 10 -4 10 -10z m50 -10 c0 -5 -5 -10 -11 -10 -5 0 -7 5 -4
10 3 6 8 10 11 10 2 0 4 -4 4 -10z m-350 -30 c-8 -5 -19 -10 -25 -10 -5 0 -3
5 5 10 8 5 20 10 25 10 6 0 3 -5 -5 -10z m300 -49 c0 -6 -4 -13 -10 -16 -5 -3
-10 1 -10 9 0 9 5 16 10 16 6 0 10 -4 10 -9z m-663 -27 c-3 -3 -12 -4 -19 -1
-8 3 -5 6 6 6 11 1 17 -2 13 -5z m1218 -14 c8 -13 -15 -13 -35 0 -12 8 -11 10
7 10 12 0 25 -4 28 -10z m-1182 -17 c-7 -2 -13 -11 -13 -19 0 -8 -5 -14 -11
-14 -5 0 -7 -4 -4 -10 3 -6 -5 -10 -19 -10 -13 0 -31 -7 -40 -15 -8 -8 -19
-15 -24 -15 -6 0 -12 -7 -16 -15 -3 -9 -12 -12 -22 -8 -14 5 -13 8 7 24 13 10
28 19 32 19 5 0 15 7 23 15 14 13 14 15 0 15 -9 0 -16 6 -16 13 0 9 9 12 29 9
16 -2 37 1 48 7 10 6 23 10 28 10 6 0 4 -3 -2 -6z m581 -14 c-3 -5 -10 -7 -15
-3 -5 3 -7 10 -3 15 3 5 10 7 15 3 5 -3 7 -10 3 -15z m-204 -15 c0 -8 -4 -14
-10 -14 -5 0 -10 9 -10 21 0 11 5 17 10 14 6 -3 10 -13 10 -21z m-224 -48
c-10 -20 -16 -24 -22 -15 -4 7 -2 15 4 17 7 2 12 13 12 25 0 14 3 18 10 11 7
-7 6 -19 -4 -38z m1201 2 c-3 -8 -6 -5 -6 6 -1 11 2 17 5 13 3 -3 4 -12 1 -19z
m0 -52 c-3 -7 0 -19 6 -25 8 -8 8 -14 -1 -23 -9 -9 -12 -9 -13 3 0 7 -7 1 -14
-16 l-13 -30 -13 43 c-7 26 -18 42 -28 42 -14 0 -14 2 -1 10 24 16 83 13 77
-4z m-98 -77 c-19 -12 -24 -2 -8 17 9 11 14 13 17 4 3 -7 -2 -16 -9 -21z m168
-5 c-3 -3 -12 -4 -19 -1 -8 3 -5 6 6 6 11 1 17 -2 13 -5z m-1670 -26 c-3 -8
-6 -5 -6 6 -1 11 2 17 5 13 3 -3 4 -12 1 -19z m1598 12 c3 -5 1 -10 -4 -10 -6
0 -11 5 -11 10 0 6 2 10 4 10 3 0 8 -4 11 -10z m55 -10 c0 -5 -9 -10 -21 -10
-11 0 -17 5 -14 10 3 6 13 10 21 10 8 0 14 -4 14 -10z m-1605 -32 c-4 -13 -12
-27 -18 -33 -7 -7 -8 -4 -3 8 3 10 6 25 6 33 0 8 5 14 11 14 6 0 8 -9 4 -22z
m1502 10 c7 -5 24 -7 38 -4 14 4 25 2 25 -4 0 -5 -10 -10 -22 -10 -13 0 -30
-5 -38 -10 -13 -8 -12 -10 4 -10 19 0 19 0 1 -14 -18 -13 -18 -14 3 -25 13 -7
19 -17 16 -23 -5 -7 -11 -5 -20 6 -14 20 -34 14 -34 -10 0 -27 -17 -14 -24 18
-7 36 0 49 15 28 9 -13 10 -13 7 0 -3 8 -14 17 -25 20 -16 4 -19 10 -13 25 9
23 47 30 67 13z m-117 -48 c0 -5 -2 -10 -4 -10 -3 0 -8 5 -11 10 -3 6 -1 10 4
10 6 0 11 -4 11 -10z m191 -43 c-8 -8 -11 -7 -11 4 0 9 3 19 7 23 4 4 9 2 11
-4 3 -7 -1 -17 -7 -23z m-111 -47 c0 -5 -9 -10 -20 -10 -11 0 -20 5 -20 10 0
6 9 10 20 10 11 0 20 -4 20 -10z m-2590 -20 c0 -5 -4 -10 -10 -10 -5 0 -10 5
-10 10 0 6 5 10 10 10 6 0 10 -4 10 -10z m2600 -74 c-14 -14 -24 0 -16 21 6
15 8 15 16 3 6 -9 5 -19 0 -24z m-40 -27 c0 -5 -4 -9 -10 -9 -5 0 -10 7 -10
16 0 8 5 12 10 9 6 -3 10 -10 10 -16z m-1595 -9 c3 -5 -1 -10 -9 -10 -9 0 -16
5 -16 10 0 6 4 10 9 10 6 0 13 -4 16 -10z m-1025 -10 c0 -5 -2 -10 -4 -10 -3
0 -8 5 -11 10 -3 6 -1 10 4 10 6 0 11 -4 11 -10z m973 3 c-7 -2 -19 -2 -25 0
-7 3 -2 5 12 5 14 0 19 -2 13 -5z m17 -42 c0 -6 -4 -13 -10 -16 -5 -3 -10 1
-10 9 0 9 5 16 10 16 6 0 10 -4 10 -9z m39 -35 c-12 -10 -69 -24 -69 -16 0 5
10 11 23 13 31 6 51 8 46 3z m21 -36 c0 -5 -4 -10 -10 -10 -5 0 -10 5 -10 10
0 6 5 10 10 10 6 0 10 -4 10 -10z m1366 -27 c-10 -10 -19 5 -10 18 6 11 8 11
12 0 2 -7 1 -15 -2 -18z m-38 -55 c-7 -19 -38 -22 -38 -4 0 10 9 16 21 16 12
0 19 -5 17 -12z m-2648 -13 c0 -8 -4 -15 -10 -15 -5 0 -10 7 -10 15 0 8 5 15
10 15 6 0 10 -7 10 -15z m2728 -14 c9 -5 25 -12 36 -15 13 -5 15 -10 8 -19 -6
-6 -12 -25 -15 -42 -3 -24 -4 -22 -6 13 -1 35 -4 42 -21 42 -17 0 -20 -7 -20
-39 0 -22 5 -43 10 -46 21 -13 8 -23 -40 -30 -33 -5 -50 -12 -50 -21 0 -8 4
-14 10 -14 5 0 7 -7 3 -16 -4 -10 -9 -12 -16 -5 -5 5 -19 6 -31 1 -14 -5 -28
-3 -40 6 -17 12 -17 16 -5 30 11 13 11 18 2 21 -7 3 -23 14 -35 25 -21 18 -21
19 -3 12 11 -4 35 -9 53 -12 34 -5 39 -11 20 -30 -8 -8 -8 -12 -1 -12 13 0 25
28 17 41 -3 5 2 9 10 9 9 0 16 5 16 10 0 6 -4 10 -10 10 -5 0 -10 5 -10 10 0
6 14 10 31 10 26 0 29 3 20 14 -9 11 -6 15 16 21 16 4 22 10 16 12 -7 3 -13 9
-13 14 0 12 25 12 48 0z m-114 -42 c-7 -11 -34 -12 -34 -1 0 14 11 21 26 15 8
-3 11 -9 8 -14z m299 14 c-7 -2 -19 -2 -25 0 -7 3 -2 5 12 5 14 0 19 -2 13 -5z
m-339 -42 c3 -5 0 -11 -8 -14 -15 -6 -26 1 -26 15 0 11 27 10 34 -1z m-2797
-37 c-3 -3 -12 -4 -19 -1 -8 3 -5 6 6 6 11 1 17 -2 13 -5z m2993 -14 c13 -8
13 -10 -2 -10 -9 0 -20 5 -23 10 -8 13 5 13 25 0z m-3275 -50 c3 -6 -4 -10
-17 -10 -18 0 -20 2 -8 10 19 12 18 12 25 0z m472 -42 c-3 -7 -5 -2 -5 12 0
14 2 19 5 13 2 -7 2 -19 0 -25z m2583 12 c0 -4 -11 -10 -25 -12 -26 -5 -37 16
-12 25 15 5 37 -2 37 -13z m130 11 c0 -6 -4 -13 -10 -16 -5 -3 -10 1 -10 9 0
9 5 16 10 16 6 0 10 -4 10 -9z m-3446 -20 c7 -11 -22 -23 -35 -15 -5 3 -7 10
-4 15 8 12 32 12 39 0z m3126 -1 c0 -5 8 -10 17 -10 31 0 8 -7 -44 -14 -57 -7
-70 3 -25 21 36 14 52 15 52 3z m-1033 -22 c-3 -8 -6 -5 -6 6 -1 11 2 17 5 13
3 -3 4 -12 1 -19z m931 -10 c2 -13 -3 -18 -17 -18 -12 0 -22 -6 -22 -12 -1 -7
-2 -19 -3 -27 0 -8 -6 -16 -12 -18 -7 -2 -9 8 -6 27 2 16 8 30 13 30 5 0 9 5
9 11 0 7 -10 9 -25 5 -14 -4 -25 -3 -25 2 0 15 10 19 48 18 26 -1 38 -6 40
-18z m-203 -16 c-2 -3 -12 -1 -22 2 -15 6 -15 9 -3 16 13 8 35 -8 25 -18z m95
7 c0 -16 4 -19 21 -14 17 6 20 3 17 -12 -2 -11 -13 -19 -31 -21 -19 -2 -27 -9
-27 -22 0 -10 -4 -22 -10 -25 -13 -8 -13 15 2 70 13 47 28 60 28 24z m290 11
c0 -5 -4 -10 -10 -10 -5 0 -10 5 -10 10 0 6 5 10 10 10 6 0 10 -4 10 -10z
m-1090 -27 c0 -9 -6 -13 -15 -9 -8 3 -15 1 -15 -4 0 -6 -4 -10 -9 -10 -5 0 -7
8 -4 18 5 22 43 27 43 5z m222 -15 c-8 -8 -15 -8 -28 2 -15 13 -14 15 3 21 23
9 41 -7 25 -23z m-148 6 c9 -22 8 -24 -9 -24 -8 0 -15 -4 -15 -10 0 -5 -8 -10
-17 -10 -10 0 -27 -7 -37 -15 -28 -21 -38 -8 -13 18 14 14 31 21 45 19 17 -3
22 0 22 17 0 25 15 28 24 5z m616 -15 c0 -5 -9 -9 -20 -9 -19 0 -27 20 -13 33
7 8 33 -11 33 -24z m-320 1 c0 -5 -5 -10 -11 -10 -5 0 -7 5 -4 10 3 6 8 10 11
10 2 0 4 -4 4 -10z m50 -25 c0 -9 -9 -15 -25 -15 -26 0 -34 15 -12 23 23 10
37 7 37 -8z m394 -17 c-18 -60 -25 -71 -35 -61 -12 12 -3 53 12 53 5 0 9 7 9
15 0 8 5 15 11 15 6 0 8 -9 3 -22z m-894 -3 c0 -8 -7 -15 -15 -15 -26 0 -18
20 13 29 1 1 2 -6 2 -14z m440 5 c0 -5 -4 -10 -10 -10 -5 0 -10 5 -10 10 0 6
5 10 10 10 6 0 10 -4 10 -10z m166 -67 c-8 -8 -12 -3 -21 27 l-7 25 17 -23 c9
-13 14 -26 11 -29z m91 25 c-3 -8 -6 -5 -6 6 -1 11 2 17 5 13 3 -3 4 -12 1
-19z m-872 -29 c-10 -15 -25 -10 -19 6 4 8 10 12 15 9 5 -3 7 -10 4 -15z m50
-8 c3 -5 0 -13 -6 -16 -6 -4 -8 -18 -5 -30 9 -36 -10 -39 -24 -5 -13 32 -25
38 -33 18 -3 -8 -6 -6 -6 5 -1 10 6 17 18 17 11 0 23 5 26 10 8 13 22 13 30 1z
m2865 0 c0 -5 7 -11 15 -13 22 -4 -36 -83 -75 -99 -16 -7 -27 -16 -25 -20 3
-3 -4 -14 -15 -24 -11 -10 -20 -27 -20 -37 0 -11 -4 -17 -9 -14 -5 3 -11 -3
-14 -14 -3 -11 -14 -20 -24 -20 -19 0 -53 -54 -53 -84 0 -8 -6 -16 -14 -19 -9
-4 -12 -14 -9 -25 3 -15 0 -20 -13 -19 -13 2 -20 -9 -28 -40 -6 -23 -14 -45
-18 -49 -5 -4 -8 -18 -8 -31 0 -13 -6 -23 -14 -23 -9 0 -15 -22 -20 -77 -3
-47 -11 -82 -19 -88 -8 -5 -12 -16 -10 -22 3 -7 0 -13 -6 -13 -6 0 -11 -9 -11
-20 0 -11 -4 -20 -10 -20 -5 0 -10 9 -10 20 0 11 -4 20 -8 20 -5 0 -9 7 -9 15
0 17 18 20 33 5 6 -6 10 -3 11 11 2 16 -3 20 -17 16 -20 -5 -50 29 -50 58 0
18 -11 20 -27 4 -16 -16 -22 0 -29 70 -6 52 -10 61 -27 61 -16 0 -17 -2 -7
-15 14 -17 8 -31 -9 -20 -21 12 -2 95 22 95 5 0 4 6 -2 14 -10 12 -6 14 21 12
18 -2 39 -1 46 2 20 7 14 32 -8 32 -15 0 -20 7 -21 28 -2 43 1 52 22 73 12 12
18 28 15 37 -5 15 -4 15 8 0 7 -10 24 -18 37 -17 13 0 18 3 12 6 -20 7 -15 26
5 21 20 -6 42 14 42 37 0 9 9 15 25 15 14 0 25 6 25 13 0 9 3 8 9 -2 6 -9 18
-11 40 -6 31 7 45 28 15 23 -10 -2 -19 3 -22 11 -3 10 0 12 12 8 14 -6 21 3
17 26 0 4 6 7 14 7 8 0 29 14 46 32 25 27 32 30 40 18 6 -10 12 -11 17 -4 19
27 55 42 78 34 18 -7 22 -6 17 5 -3 8 0 15 6 15 6 0 11 -4 11 -9z m-1963 -33
c-3 -7 -5 -2 -5 12 0 14 2 19 5 13 2 -7 2 -19 0 -25z m1679 -60 c4 -7 3 -8 -4
-4 -7 4 -12 3 -12 -2 0 -6 7 -13 16 -16 23 -9 8 -24 -20 -19 -23 5 -41 35 -28
47 10 10 41 6 48 -6z m782 -37 c10 -6 8 -10 -9 -14 -26 -7 -34 -3 -24 12 7 13
15 14 33 2z m41 -55 c-9 -8 -10 -7 -5 7 3 10 7 24 7 30 1 7 3 4 6 -7 3 -10 -1
-23 -8 -30z m-919 -6 c0 -5 -4 -10 -10 -10 -5 0 -10 5 -10 10 0 6 5 10 10 10
6 0 10 -4 10 -10z m-2725 -50 c17 -7 14 -9 -13 -9 -20 -1 -31 3 -27 9 7 12 13
12 40 0z m3965 -16 c0 -2 -7 -4 -15 -4 -8 0 -15 4 -15 10 0 5 7 7 15 4 8 -4
15 -8 15 -10z m35 -34 c-3 -5 -10 -10 -16 -10 -5 0 -9 5 -9 10 0 6 7 10 16 10
8 0 12 -4 9 -10z m-869 -27 c-10 -10 -19 5 -10 18 6 11 8 11 12 0 2 -7 1 -15
-2 -18z m904 -3 c0 -5 -7 -10 -15 -10 -8 0 -15 5 -15 10 0 6 7 10 15 10 8 0
15 -4 15 -10z m-1079 -223 c-13 -13 -26 -3 -16 12 3 6 11 8 17 5 6 -4 6 -10
-1 -17z m-214 -219 c-3 -8 -6 -5 -6 6 -1 11 2 17 5 13 3 -3 4 -12 1 -19z
m2268 -1388 c-3 -5 -11 -10 -16 -10 -6 0 -7 5 -4 10 3 6 11 10 16 10 6 0 7 -4
4 -10z m-2575 -31 c0 -5 -12 -9 -27 -9 -27 1 -27 1 -9 15 19 14 36 12 36 -6z
m2633 4 c-7 -2 -19 -2 -25 0 -7 3 -2 5 12 5 14 0 19 -2 13 -5z m-2848 -33 c3
-5 16 -10 28 -11 21 0 21 -1 2 -8 -20 -8 -55 6 -55 21 0 11 18 10 25 -2z
m-510 -70 c-3 -5 -14 -6 -25 -3 -16 4 -18 8 -9 19 9 11 15 11 25 3 8 -6 12
-15 9 -19z m150 20 c-8 -12 -52 -13 -59 -2 -3 5 11 9 30 10 20 1 32 -3 29 -8z
m-28 -56 c-3 -3 -12 -4 -19 -1 -8 3 -5 6 6 6 11 1 17 -2 13 -5z m-647 -44 c0
-5 -9 -10 -20 -10 -11 0 -20 5 -20 10 0 6 9 10 20 10 11 0 20 -4 20 -10z
m-250 -50 c0 -5 -9 -10 -19 -10 -11 0 -23 5 -26 10 -4 6 5 10 19 10 14 0 26
-4 26 -10z m-333 -66 c-3 -3 -12 -4 -19 -1 -8 3 -5 6 6 6 11 1 17 -2 13 -5z
m-67 -24 c0 -5 -6 -10 -14 -10 -8 0 -18 5 -21 10 -3 6 3 10 14 10 12 0 21 -4
21 -10z m8269 -2385 c0 -5 -4 -3 -9 5 -5 8 -9 22 -9 30 0 16 17 -16 18 -35z
m-19 -33 c0 -15 -2 -15 -10 -2 -13 20 -13 33 0 25 6 -3 10 -14 10 -23z
m-14596 -807 c-4 -8 -8 -15 -10 -15 -2 0 -4 7 -4 15 0 8 4 15 10 15 5 0 7 -7
4 -15z m9389 -6312 c-7 -2 -19 -2 -25 0 -7 3 -2 5 12 5 14 0 19 -2 13 -5z
m4757 -4823 c0 -5 -15 -10 -32 -9 -31 1 -32 1 -8 9 35 11 40 11 40 0z m1210
-970 c0 -5 -2 -10 -4 -10 -3 0 -8 5 -11 10 -3 6 -1 10 4 10 6 0 11 -4 11 -10z
m-10 -30 c0 -5 -4 -10 -10 -10 -5 0 -10 5 -10 10 0 6 5 10 10 10 6 0 10 -4 10
-10z m267 -632 c-3 -8 -6 -5 -6 6 -1 11 2 17 5 13 3 -3 4 -12 1 -19z m-17072
-968 c3 -5 2 -10 -4 -10 -5 0 -13 5 -16 10 -3 6 -2 10 4 10 5 0 13 -4 16 -10z
m16875 -360 c0 -5 -4 -10 -10 -10 -5 0 -10 5 -10 10 0 6 5 10 10 10 6 0 10 -4
10 -10z m-72 -117 c-2 -10 -7 -18 -12 -18 -5 0 -10 8 -12 18 -1 9 4 17 13 17
8 0 13 -7 11 -17z m-16248 -143 c0 -5 -7 -10 -15 -10 -8 0 -15 5 -15 10 0 6 7
10 15 10 8 0 15 -4 15 -10z m13287 -1366 c-3 -3 -12 -4 -19 -1 -8 3 -5 6 6 6
11 1 17 -2 13 -5z m-1707 -284 c0 -5 -4 -10 -10 -10 -5 0 -10 5 -10 10 0 6 5
10 10 10 6 0 10 -4 10 -10z m-1004 -181 c4 -7 9 -8 13 -1 3 5 21 7 38 5 34 -5
36 -23 2 -23 -10 0 -19 -7 -19 -15 0 -16 -64 -50 -79 -41 -5 4 -13 1 -16 -5
-4 -5 -14 -8 -22 -5 -9 4 -22 1 -29 -5 -11 -9 -16 -6 -23 12 -12 34 6 57 43
57 50 0 56 1 56 17 0 17 26 20 36 4z m-186 -78 c19 -20 28 -62 10 -44 -15 14
-40 6 -40 -14 0 -9 -6 -13 -14 -10 -7 3 -19 0 -25 -6 -13 -13 -142 -15 -157
-2 -8 7 -4 15 12 28 13 10 21 24 18 32 -4 10 0 12 17 8 17 -5 20 -3 14 8 -6
11 -5 12 6 2 19 -19 53 -16 79 7 26 22 54 19 80 -9z m-4880 -942 c0 -6 -4 -7
-10 -4 -5 3 -10 11 -10 16 0 6 5 7 10 4 6 -3 10 -11 10 -16z"/>
<path d="M23737 35666 c-7 -18 1 -26 25 -26 11 0 18 7 18 20 0 23 -35 28 -43
6z"/>
<path d="M23940 35610 c0 -5 5 -10 11 -10 5 0 7 5 4 10 -3 6 -8 10 -11 10 -2
0 -4 -4 -4 -10z"/>
<path d="M24310 35562 c-8 -3 -19 -11 -23 -18 -10 -17 -37 -18 -37 -2 0 6 -9
3 -20 -7 -11 -10 -20 -29 -20 -42 0 -13 -8 -26 -17 -30 -10 -4 -22 -12 -28
-19 -5 -7 -19 -14 -30 -16 -25 -4 -22 -22 5 -26 28 -5 25 -19 -7 -37 l-28 -15
30 2 c17 2 35 10 41 18 10 12 14 12 28 1 32 -27 29 0 -4 34 -22 23 -29 35 -19
35 8 0 20 -5 27 -12 9 -9 13 -8 17 5 4 9 13 13 22 10 11 -4 14 -2 9 5 -4 7 -3
12 3 12 5 0 13 -4 16 -10 3 -5 15 -10 25 -10 14 0 18 5 13 17 -6 15 -5 16 9 3
12 -12 13 -17 2 -28 -8 -7 -18 -11 -23 -8 -16 10 -41 -5 -41 -24 0 -10 6 -20
13 -23 20 -8 65 3 78 19 9 11 15 12 26 3 16 -14 30 -4 34 26 4 21 -36 95 -52
95 -4 0 -6 6 -3 14 6 17 -24 36 -46 28z m38 -73 l-3 -24 -18 27 c-11 15 -16
32 -12 39 12 18 37 -15 33 -42z m-98 27 c0 -3 -4 -8 -10 -11 -5 -3 -10 -1 -10
4 0 6 5 11 10 11 6 0 10 -2 10 -4z m55 -26 c3 -5 1 -10 -4 -10 -6 0 -11 5 -11
10 0 6 2 10 4 10 3 0 8 -4 11 -10z m95 -62 c0 -4 -7 -8 -15 -8 -10 0 -15 10
-15 28 1 26 1 26 15 8 8 -11 15 -23 15 -28z"/>
<path d="M24694 35466 c-7 -19 1 -46 15 -46 10 0 9 46 -2 56 -4 4 -9 -1 -13
-10z"/>
<path d="M24073 35445 c-10 -10 -9 -14 2 -19 17 -6 31 12 19 24 -5 5 -14 2
-21 -5z"/>
<path d="M24640 35405 c0 -8 5 -15 10 -15 6 0 10 7 10 15 0 8 -4 15 -10 15 -5
0 -10 -7 -10 -15z"/>
<path d="M24314 35340 c3 -14 6 -28 6 -32 0 -5 7 -8 15 -8 20 0 19 10 -6 40
l-21 25 6 -25z"/>
<path d="M24350 35340 c0 -11 5 -20 10 -20 6 0 10 9 10 20 0 11 -4 20 -10 20
-5 0 -10 -9 -10 -20z"/>
<path d="M24040 35335 c0 -8 9 -15 20 -15 24 0 27 15 4 24 -22 9 -24 8 -24 -9z"/>
<path d="M24240 35311 c0 -6 9 -11 21 -11 15 0 19 -5 15 -15 -6 -17 2 -19 24
-5 19 12 5 26 -32 35 -18 5 -28 3 -28 -4z"/>
<path d="M24383 35294 c-27 -29 -28 -37 -8 -54 9 -7 14 -19 11 -27 -3 -7 -1
-13 4 -13 6 0 10 7 10 16 0 10 7 14 23 12 14 -2 21 -9 21 -21 -1 -10 2 -17 8
-15 5 2 9 7 9 11 -1 4 -1 14 -1 22 0 8 -8 15 -18 15 -26 0 -58 35 -41 46 7 4
15 2 17 -4 2 -7 8 -12 13 -12 6 0 8 4 4 9 -3 5 -1 12 5 16 6 4 8 11 5 16 -10
16 -39 8 -62 -17z"/>
<path d="M23668 35299 c-18 -10 -25 -39 -9 -39 12 0 33 28 29 39 -2 6 -9 6
-20 0z"/>
<path d="M24081 35294 c0 -11 3 -14 6 -6 3 7 2 16 -1 19 -3 4 -6 -2 -5 -13z"/>
<path d="M23408 35283 c7 -3 16 -2 19 1 4 3 -2 6 -13 5 -11 0 -14 -3 -6 -6z"/>
<path d="M23936 35283 c6 -4 14 -15 17 -23 5 -11 6 -9 4 4 -1 11 -9 21 -17 23
-10 3 -11 2 -4 -4z"/>
<path d="M24154 35263 c3 -8 6 -19 6 -24 0 -6 8 -5 20 1 27 15 25 27 -6 33
-19 3 -24 1 -20 -10z"/>
<path d="M23920 35262 c0 -7 -12 -13 -27 -13 -26 -2 -26 -2 -4 -6 24 -5 50 11
38 24 -4 3 -7 1 -7 -5z"/>
<path d="M24050 35254 c0 -8 5 -12 10 -9 6 4 8 11 5 16 -9 14 -15 11 -15 -7z"/>
<path d="M23826 35232 c-7 -29 -9 -31 -20 -16 -12 15 -15 15 -45 -1 -48 -24
-27 -36 53 -28 65 6 67 7 48 22 -11 9 -22 25 -24 36 -3 15 -6 12 -12 -13z"/>
<path d="M24500 35240 c0 -5 9 -10 20 -10 11 0 20 5 20 10 0 6 -9 10 -20 10
-11 0 -20 -4 -20 -10z"/>
<path d="M23376 35231 c-4 -5 -2 -12 3 -16 6 -3 8 -12 5 -19 -3 -9 6 -18 25
-24 24 -8 31 -8 35 5 8 21 8 22 -13 16 -14 -4 -20 1 -23 18 -3 24 -22 36 -32
20z"/>
<path d="M23668 35233 c7 -3 16 -2 19 1 4 3 -2 6 -13 5 -11 0 -14 -3 -6 -6z"/>
<path d="M24220 35227 c-14 -6 -27 -12 -28 -13 -9 -6 10 -44 19 -39 8 6 43 66
37 64 -2 0 -14 -5 -28 -12z"/>
<path d="M23927 35224 c-4 -4 -7 -16 -7 -26 0 -18 1 -18 16 -3 11 10 13 20 7
26 -5 5 -12 6 -16 3z"/>
<path d="M23273 35207 c1 -5 17 -11 35 -12 17 -2 30 1 27 5 -7 12 -66 18 -62
7z"/>
<path d="M24323 35205 c-17 -14 -17 -14 2 -15 11 0 26 4 33 9 11 7 11 9 -1 14
-8 3 -23 -1 -34 -8z"/>
<path d="M23568 35193 c7 -3 16 -2 19 1 4 3 -2 6 -13 5 -11 0 -14 -3 -6 -6z"/>
<path d="M24020 35190 c0 -5 7 -10 15 -10 8 0 15 5 15 10 0 6 -7 10 -15 10 -8
0 -15 -4 -15 -10z"/>
<path d="M24520 35185 c7 -8 16 -15 21 -15 5 0 9 7 9 15 0 9 -9 15 -21 15 -18
0 -19 -2 -9 -15z"/>
<path d="M23523 35145 c1 -40 9 -43 36 -14 11 12 24 18 30 14 6 -3 11 1 11 10
0 12 -6 15 -20 10 -10 -3 -28 -1 -39 4 -17 10 -19 7 -18 -24z"/>
<path d="M23841 35164 c0 -11 3 -14 6 -6 3 7 2 16 -1 19 -3 4 -6 -2 -5 -13z"/>
<path d="M23885 35170 c-4 -6 -3 -16 3 -22 6 -6 12 -6 17 2 4 6 3 16 -3 22 -6
6 -12 6 -17 -2z"/>
<path d="M23300 35160 c0 -5 4 -10 9 -10 6 0 13 5 16 10 3 6 -1 10 -9 10 -9 0
-16 -4 -16 -10z"/>
<path d="M23340 35155 c0 -16 43 -31 60 -20 17 10 0 26 -21 20 -11 -4 -19 -2
-19 4 0 6 -4 11 -10 11 -5 0 -10 -7 -10 -15z"/>
<path d="M24061 35155 c-48 -16 -55 -39 -10 -31 l34 7 -33 -19 c-36 -20 -33
-32 9 -32 19 0 30 -6 34 -19 3 -11 19 -26 35 -33 20 -8 30 -20 30 -34 0 -20
-2 -21 -49 -10 -62 14 -69 21 -46 46 18 20 18 20 -26 20 -31 0 -40 -3 -29 -10
11 -7 12 -12 3 -21 -13 -13 -37 -3 -28 12 6 9 -43 15 -107 11 -34 -2 -38 0
-46 30 -9 38 -35 44 -40 11 -2 -13 -9 -23 -17 -23 -7 0 -15 -6 -18 -12 -3 -10
-9 -10 -26 0 -25 15 -51 16 -51 2 0 -5 -7 -10 -15 -10 -8 0 -15 7 -15 15 0 21
-30 31 -41 14 -7 -11 -9 -11 -9 3 0 11 -5 15 -15 12 -18 -7 -20 -41 -2 -47 6
-2 1 -2 -13 0 l-25 3 28 -25 28 -25 -35 0 c-22 0 -36 5 -36 13 0 8 -3 8 -9 -2
-5 -8 -7 -20 -4 -28 3 -7 0 -13 -6 -13 -6 0 -11 -6 -11 -14 0 -9 -7 -12 -20
-9 -15 4 -20 0 -20 -15 0 -29 23 -43 61 -37 21 3 29 2 21 -3 -7 -5 -12 -15
-10 -23 3 -13 -10 -16 -42 -8 -9 3 -14 -2 -12 -10 5 -22 -18 -59 -41 -65 -15
-4 -18 -11 -15 -30 4 -18 1 -26 -8 -26 -8 0 -14 9 -14 20 0 11 -4 20 -9 20 -5
0 -13 -9 -16 -20 -3 -11 -13 -20 -21 -20 -8 0 -13 -4 -9 -9 9 -16 -27 -30 -52
-20 -19 7 -23 5 -23 -9 0 -15 7 -17 42 -13 24 2 48 11 55 20 6 9 22 16 34 16
15 0 28 11 40 32 35 63 94 101 82 53 -5 -18 0 -20 35 -20 44 0 63 -22 34 -39
-12 -8 -13 -10 -3 -11 11 0 10 -5 -4 -20 -18 -20 -17 -20 13 -20 21 0 36 7 47
23 14 20 17 20 28 6 7 -9 18 -14 24 -12 7 3 16 -2 19 -11 8 -20 40 -21 48 -1
3 8 12 15 21 15 9 0 26 7 39 15 24 16 103 18 112 3 3 -4 10 -5 17 -2 7 2 22
-4 32 -16 14 -15 21 -17 32 -9 10 9 13 5 13 -20 0 -36 12 -39 39 -12 19 19 20
19 36 1 9 -10 25 -20 35 -23 17 -4 16 -2 -3 31 l-21 35 21 -5 c15 -4 23 0 26
13 7 26 35 35 54 16 14 -13 14 -20 3 -47 -7 -17 -10 -33 -6 -37 3 -3 6 1 6 10
0 8 5 17 11 19 6 2 12 15 12 29 2 19 6 25 20 21 14 -4 17 2 17 32 0 21 4 45 9
55 5 9 6 23 1 30 -11 19 -33 3 -27 -19 3 -11 -1 -21 -8 -23 -8 -4 -11 6 -8 36
3 31 1 38 -7 27 -8 -12 -10 -11 -10 7 0 12 9 27 20 33 15 8 19 17 14 35 -4 17
-2 25 7 25 8 1 3 7 -10 14 l-24 13 27 7 c21 5 26 11 21 26 -4 11 -2 20 4 20 6
0 8 7 5 15 -4 10 0 15 12 16 11 0 -1 7 -26 14 -47 15 -65 11 -39 -9 14 -10 15
-15 4 -29 -7 -9 -19 -17 -27 -17 -8 0 -19 -5 -25 -11 -7 -7 -17 -3 -32 17 -11
15 -21 33 -21 40 0 7 -9 15 -20 19 -15 5 -18 12 -14 34 7 36 -2 41 -45 26z
m-341 -124 c0 -5 8 -11 17 -13 15 -3 15 -5 2 -18 -8 -8 -18 -23 -22 -32 -3
-10 -14 -18 -22 -18 -15 0 -15 2 -1 22 20 28 20 38 1 38 -16 0 -20 12 -8 23
10 10 33 8 33 -2z m-84 -37 c-3 -9 -6 -20 -6 -25 0 -5 -4 -9 -10 -9 -11 0 -14
33 -3 43 12 13 25 7 19 -9z m474 -264 c0 -5 -5 -10 -11 -10 -5 0 -7 5 -4 10 3
6 8 10 11 10 2 0 4 -4 4 -10z"/>
<path d="M23470 35140 c0 -11 5 -20 10 -20 6 0 10 9 10 20 0 11 -4 20 -10 20
-5 0 -10 -9 -10 -20z"/>
<path d="M24200 35150 c0 -5 5 -10 10 -10 6 0 10 5 10 10 0 6 -4 10 -10 10 -5
0 -10 -4 -10 -10z"/>
<path d="M24304 35149 c-3 -6 -1 -16 5 -22 8 -8 11 -5 11 11 0 24 -5 28 -16
11z"/>
<path d="M24425 35140 c-3 -5 -1 -10 4 -10 6 0 11 5 11 10 0 6 -2 10 -4 10 -3
0 -8 -4 -11 -10z"/>
<path d="M23325 35120 c-3 -6 1 -7 9 -4 18 7 21 14 7 14 -6 0 -13 -4 -16 -10z"/>
<path d="M23853 35123 c-18 -6 -16 -23 1 -23 17 0 30 16 19 23 -5 2 -14 2 -20
0z"/>
<path d="M23380 35110 c0 -5 4 -10 9 -10 6 0 13 5 16 10 3 6 -1 10 -9 10 -9 0
-16 -4 -16 -10z"/>
<path d="M24390 35084 c0 -8 5 -12 10 -9 6 3 10 10 10 16 0 5 -4 9 -10 9 -5 0
-10 -7 -10 -16z"/>
<path d="M24173 35074 c-19 -20 -16 -38 3 -20 8 9 14 20 12 25 -2 5 -9 3 -15
-5z"/>
<path d="M23320 35070 c0 -5 5 -10 10 -10 6 0 10 5 10 10 0 6 -4 10 -10 10 -5
0 -10 -4 -10 -10z"/>
<path d="M24200 35050 c0 -5 7 -10 16 -10 8 0 12 5 9 10 -3 6 -10 10 -16 10
-5 0 -9 -4 -9 -10z"/>
<path d="M23406 35041 c-4 -6 -3 -19 3 -28 9 -17 10 -17 17 0 8 21 -10 45 -20
28z"/>
<path d="M23452 35023 c-19 -8 -4 -23 24 -23 16 0 24 5 22 13 -5 13 -26 18
-46 10z"/>
<path d="M23243 35013 c-28 -3 -43 -9 -43 -18 0 -10 13 -13 50 -11 28 1 50 6
50 9 0 4 0 12 0 17 0 6 -3 9 -7 8 -5 -1 -27 -3 -50 -5z"/>
<path d="M24370 34994 c0 -8 5 -12 10 -9 6 3 10 10 10 16 0 5 -4 9 -10 9 -5 0
-10 -7 -10 -16z"/>
<path d="M24401 34984 c0 -11 3 -14 6 -6 3 7 2 16 -1 19 -3 4 -6 -2 -5 -13z"/>
<path d="M23430 34960 c0 -5 5 -10 11 -10 5 0 7 5 4 10 -3 6 -8 10 -11 10 -2
0 -4 -4 -4 -10z"/>
<path d="M23288 34933 c-10 -2 -18 -6 -18 -9 0 -11 42 -44 55 -44 21 0 30 27
15 45 -13 15 -21 16 -52 8z"/>
<path d="M24470 34921 c0 -10 22 -31 32 -31 17 0 7 28 -12 33 -11 3 -20 2 -20
-2z"/>
<path d="M22096 34901 c-8 -12 3 -41 15 -41 12 0 12 37 0 45 -5 3 -12 1 -15
-4z"/>
<path d="M24270 34881 c0 -17 15 -19 28 -5 11 12 9 14 -8 14 -11 0 -20 -4 -20
-9z"/>
<path d="M22052 34863 c5 -25 28 -28 28 -4 0 12 -6 21 -16 21 -9 0 -14 -7 -12
-17z"/>
<path d="M23080 34854 c0 -14 4 -23 10 -19 6 3 10 15 10 26 0 10 -4 19 -10 19
-5 0 -10 -12 -10 -26z"/>
<path d="M23300 34860 c0 -5 5 -10 10 -10 6 0 10 5 10 10 0 6 -4 10 -10 10 -5
0 -10 -4 -10 -10z"/>
<path d="M24500 34828 c0 -25 -3 -27 -30 -21 -29 5 -42 -8 -20 -22 11 -7 80
15 80 25 0 3 -7 15 -15 26 -14 18 -14 18 -15 -8z"/>
<path d="M23345 34831 c-3 -6 -4 -15 -1 -20 4 -5 0 -11 -6 -14 -10 -4 -10 -7
0 -18 11 -12 14 -12 21 0 6 9 11 10 15 2 4 -6 12 -9 17 -6 16 10 10 23 -13 28
l-23 4 23 2 c14 0 22 6 20 14 -6 16 -44 21 -53 8z"/>
<path d="M21970 34810 c0 -5 5 -10 10 -10 6 0 10 5 10 10 0 6 -4 10 -10 10 -5
0 -10 -4 -10 -10z"/>
<path d="M23114 34797 c-7 -20 3 -37 22 -37 18 0 17 10 -1 34 -13 17 -15 17
-21 3z"/>
<path d="M23301 34754 c0 -11 3 -14 6 -6 3 7 2 16 -1 19 -3 4 -6 -2 -5 -13z"/>
<path d="M23093 34753 c-15 -6 -18 -63 -3 -63 6 0 10 7 10 15 0 9 9 15 22 15
17 0 19 -3 10 -12 -15 -15 -15 -28 -1 -28 11 0 69 54 69 65 0 3 -8 4 -17 1
-10 -2 -28 -7 -40 -11 -17 -5 -23 -2 -23 9 0 16 -6 18 -27 9z"/>
<path d="M22170 34740 c0 -5 4 -10 9 -10 6 0 13 5 16 10 3 6 -1 10 -9 10 -9 0
-16 -4 -16 -10z"/>
<path d="M23510 34720 c-12 -8 -12 -10 5 -10 11 0 27 5 35 10 12 8 12 10 -5
10 -11 0 -27 -5 -35 -10z"/>
<path d="M23202 34704 c-21 -14 -31 -44 -14 -44 16 0 52 32 52 46 0 18 -10 18
-38 -2z"/>
<path d="M22830 34700 c0 -5 7 -10 16 -10 8 0 12 5 9 10 -3 6 -10 10 -16 10
-5 0 -9 -4 -9 -10z"/>
<path d="M22840 34654 c0 -17 22 -14 28 4 2 7 -3 12 -12 12 -9 0 -16 -7 -16
-16z"/>
<path d="M23512 34658 c7 -20 48 -23 48 -4 0 11 -9 16 -26 16 -16 0 -24 -5
-22 -12z"/>
<path d="M23026 34651 l-30 -6 26 -12 c25 -11 48 -2 48 19 0 9 -1 9 -44 -1z"/>
<path d="M23204 34649 c-9 -16 18 -30 33 -17 7 6 10 14 7 19 -7 13 -31 11 -40
-2z"/>
<path d="M23576 34652 c-11 -17 11 -29 47 -24 l38 4 -27 14 c-30 16 -50 18
-58 6z"/>
<path d="M23705 34647 c-4 -10 -5 -21 -1 -24 10 -10 18 4 13 24 -4 17 -4 17
-12 0z"/>
<path d="M23446 34618 c9 -46 24 -59 24 -20 0 18 0 35 1 40 0 4 -7 8 -15 10
-13 3 -15 -3 -10 -30z"/>
<path d="M23725 34604 c-26 -28 -32 -44 -15 -44 6 0 10 7 10 16 0 9 9 18 20
21 11 3 20 12 20 19 0 20 -8 17 -35 -12z"/>
<path d="M23602 34608 c5 -15 28 -18 29 -3 0 6 -7 12 -17 13 -10 3 -15 -1 -12
-10z"/>
<path d="M23520 34600 c0 -5 5 -10 11 -10 5 0 7 5 4 10 -3 6 -8 10 -11 10 -2
0 -4 -4 -4 -10z"/>
<path d="M23985 34600 c-3 -5 -1 -10 4 -10 6 0 11 5 11 10 0 6 -2 10 -4 10 -3
0 -8 -4 -11 -10z"/>
<path d="M22772 34588 c3 -7 17 -14 32 -16 20 -3 27 0 24 10 -3 7 -17 14 -32
16 -20 3 -27 0 -24 -10z"/>
<path d="M23226 34591 c-7 -10 22 -37 30 -28 9 8 -3 37 -15 37 -5 0 -12 -4
-15 -9z"/>
<path d="M22860 34575 c0 -8 5 -15 10 -15 6 0 10 7 10 15 0 8 -4 15 -10 15 -5
0 -10 -7 -10 -15z"/>
<path d="M23660 34580 c0 -5 5 -10 10 -10 6 0 10 5 10 10 0 6 -4 10 -10 10 -5
0 -10 -4 -10 -10z"/>
<path d="M24161 34574 c0 -11 3 -14 6 -6 3 7 2 16 -1 19 -3 4 -6 -2 -5 -13z"/>
<path d="M22177 34560 c-3 -11 -1 -20 4 -20 5 0 9 9 9 20 0 11 -2 20 -4 20 -2
0 -6 -9 -9 -20z"/>
<path d="M22685 34570 c-3 -5 -1 -10 4 -10 6 0 11 5 11 10 0 6 -2 10 -4 10 -3
0 -8 -4 -11 -10z"/>
<path d="M23610 34570 c0 -5 -10 -10 -21 -10 -18 0 -19 -3 -10 -14 11 -13 15
-12 32 5 21 21 24 29 9 29 -5 0 -10 -4 -10 -10z"/>
<path d="M22738 34558 c9 -9 15 -9 24 0 9 9 7 12 -12 12 -19 0 -21 -3 -12 -12z"/>
<path d="M22897 34543 c-5 -27 6 -53 18 -41 3 3 7 18 8 33 3 37 -19 43 -26 8z"/>
<path d="M23126 34555 c-44 -13 -54 -26 -32 -44 11 -10 18 -9 33 3 10 9 27 22
37 29 27 20 8 26 -38 12z"/>
<path d="M23520 34560 c0 -5 5 -10 10 -10 6 0 10 5 10 10 0 6 -4 10 -10 10 -5
0 -10 -4 -10 -10z"/>
<path d="M22974 34536 c-8 -22 3 -33 18 -18 9 9 9 15 0 24 -9 9 -13 7 -18 -6z"/>
<path d="M22786 34532 c-2 -4 -1 -14 5 -22 7 -12 9 -10 9 8 0 23 -5 28 -14 14z"/>
<path d="M23380 34525 c0 -9 6 -12 15 -9 8 4 12 10 9 15 -8 14 -24 10 -24 -6z"/>
<path d="M24127 34533 c-12 -12 -7 -53 6 -53 9 0 12 10 9 30 -5 32 -5 33 -15
23z"/>
<path d="M21870 34494 c0 -8 5 -12 10 -9 6 3 10 10 10 16 0 5 -4 9 -10 9 -5 0
-10 -7 -10 -16z"/>
<path d="M22946 34492 c-4 -7 -18 -12 -32 -12 -13 0 -24 -5 -24 -11 0 -7 12
-8 33 -4 38 9 40 10 35 26 -3 10 -6 10 -12 1z"/>
<path d="M22800 34458 c0 -13 7 -31 14 -41 13 -16 14 -16 30 7 27 41 18 74
-12 44 -9 -9 -12 -9 -12 0 0 7 -4 12 -10 12 -5 0 -10 -10 -10 -22z"/>
<path d="M23470 34455 c0 -14 5 -25 10 -25 6 0 10 11 10 25 0 14 -4 25 -10 25
-5 0 -10 -11 -10 -25z"/>
<path d="M22747 34456 c-4 -10 -5 -21 -2 -24 9 -9 17 6 13 25 -3 17 -4 17 -11
-1z"/>
<path d="M22634 34432 c1 -22 5 -28 19 -24 22 6 22 15 -2 36 -17 16 -18 15
-17 -12z"/>
<path d="M21550 34440 c0 -5 5 -10 10 -10 6 0 10 5 10 10 0 6 -4 10 -10 10 -5
0 -10 -4 -10 -10z"/>
<path d="M22590 34424 c0 -8 5 -12 10 -9 6 4 8 11 5 16 -9 14 -15 11 -15 -7z"/>
<path d="M22700 34430 c0 -5 5 -10 10 -10 6 0 10 5 10 10 0 6 -4 10 -10 10 -5
0 -10 -4 -10 -10z"/>
<path d="M22858 34373 c7 -3 16 -2 19 1 4 3 -2 6 -13 5 -11 0 -14 -3 -6 -6z"/>
<path d="M22805 34360 c4 -6 11 -8 16 -5 14 9 11 15 -7 15 -8 0 -12 -5 -9 -10z"/>
<path d="M22581 34304 c0 -11 3 -14 6 -6 3 7 2 16 -1 19 -3 4 -6 -2 -5 -13z"/>
<path d="M21762 34250 c0 -14 2 -19 5 -12 2 6 2 18 0 25 -3 6 -5 1 -5 -13z"/>
<path d="M21835 34160 c-3 -5 1 -10 9 -10 9 0 16 5 16 10 0 6 -4 10 -9 10 -6
0 -13 -4 -16 -10z"/>
<path d="M21826 34045 c-10 -28 -7 -45 9 -45 16 0 20 27 6 48 -7 11 -10 10
-15 -3z"/>
<path d="M26410 33970 c20 -13 33 -13 25 0 -3 6 -14 10 -23 10 -15 0 -15 -2
-2 -10z"/>
<path d="M26458 33913 c7 -3 16 -2 19 1 4 3 -2 6 -13 5 -11 0 -14 -3 -6 -6z"/>
<path d="M27218 32143 c7 -3 16 -2 19 1 4 3 -2 6 -13 5 -11 0 -14 -3 -6 -6z"/>
<path d="M27265 32140 c-27 -12 -23 -12 73 -14 78 -2 101 5 66 18 -23 9 -116
6 -139 -4z"/>
<path d="M25570 32060 c0 -5 5 -10 11 -10 5 0 7 5 4 10 -3 6 -8 10 -11 10 -2
0 -4 -4 -4 -10z"/>
<path d="M27855 32010 c-3 -5 -1 -10 4 -10 6 0 11 5 11 10 0 6 -2 10 -4 10 -3
0 -8 -4 -11 -10z"/>
<path d="M25115 32000 c3 -5 8 -10 11 -10 2 0 4 5 4 10 0 6 -5 10 -11 10 -5 0
-7 -4 -4 -10z"/>
<path d="M24820 31990 c0 -5 5 -10 11 -10 5 0 7 5 4 10 -3 6 -8 10 -11 10 -2
0 -4 -4 -4 -10z"/>
<path d="M25250 31985 c0 -9 5 -15 11 -13 6 2 11 8 11 13 0 5 -5 11 -11 13 -6
2 -11 -4 -11 -13z"/>
<path d="M24224 31909 c-3 -6 -19 -9 -35 -7 -18 3 -34 -1 -41 -10 -11 -13 -3
-14 62 -7 94 9 104 15 48 29 -16 3 -30 1 -34 -5z"/>
<path d="M24305 31900 c3 -5 11 -10 16 -10 6 0 7 5 4 10 -3 6 -11 10 -16 10
-6 0 -7 -4 -4 -10z"/>
<path d="M21750 31380 c0 -5 5 -10 11 -10 5 0 7 5 4 10 -3 6 -8 10 -11 10 -2
0 -4 -4 -4 -10z"/>
<path d="M21740 31350 c0 -5 9 -10 21 -10 11 0 17 5 14 10 -3 6 -13 10 -21 10
-8 0 -14 -4 -14 -10z"/>
<path d="M30055 31310 c3 -5 10 -10 16 -10 5 0 9 5 9 10 0 6 -7 10 -16 10 -8
0 -12 -4 -9 -10z"/>
<path d="M30045 31270 c3 -5 10 -10 16 -10 5 0 9 5 9 10 0 6 -7 10 -16 10 -8
0 -12 -4 -9 -10z"/>
<path d="M30160 31265 c0 -8 7 -15 15 -15 8 0 15 4 15 9 0 5 -7 11 -15 15 -9
3 -15 0 -15 -9z"/>
<path d="M30292 31183 c2 -9 9 -18 16 -21 18 -6 15 25 -4 32 -11 4 -14 1 -12
-11z"/>
<path d="M30425 31110 c4 -6 11 -8 16 -5 14 9 11 15 -7 15 -8 0 -12 -5 -9 -10z"/>
<path d="M30698 30863 c7 -3 16 -2 19 1 4 3 -2 6 -13 5 -11 0 -14 -3 -6 -6z"/>
<path d="M19800 30659 c0 -5 5 -7 10 -4 6 3 10 8 10 11 0 2 -4 4 -10 4 -5 0
-10 -5 -10 -11z"/>
<path d="M19019 30261 c-14 -12 -18 -20 -11 -21 15 0 47 28 40 36 -3 2 -16 -4
-29 -15z"/>
<path d="M18907 30203 c-18 -5 -76 -53 -63 -53 3 0 27 13 54 30 45 29 47 33 9
23z"/>
<path d="M18685 30070 c-3 -6 1 -7 9 -4 18 7 21 14 7 14 -6 0 -13 -4 -16 -10z"/>
<path d="M18540 29980 c0 -5 5 -10 10 -10 6 0 10 5 10 10 0 6 -4 10 -10 10 -5
0 -10 -4 -10 -10z"/>
<path d="M18440 29909 c0 -5 5 -7 10 -4 6 3 10 8 10 11 0 2 -4 4 -10 4 -5 0
-10 -5 -10 -11z"/>
<path d="M31290 29884 c0 -8 5 -12 10 -9 6 3 10 10 10 16 0 5 -4 9 -10 9 -5 0
-10 -7 -10 -16z"/>
<path d="M18368 29873 c6 -2 18 -2 25 0 6 3 1 5 -13 5 -14 0 -19 -2 -12 -5z"/>
<path d="M31314 29859 c-3 -6 -2 -14 3 -18 6 -3 12 -13 15 -21 3 -8 6 0 5 18
0 32 -10 41 -23 21z"/>
<path d="M18340 29850 c0 -5 5 -10 11 -10 5 0 7 5 4 10 -3 6 -8 10 -11 10 -2
0 -4 -4 -4 -10z"/>
<path d="M18253 29803 c-18 -6 -16 -23 1 -23 17 0 30 16 19 23 -5 2 -14 2 -20
0z"/>
<path d="M17610 29780 c0 -5 7 -10 15 -10 8 0 15 5 15 10 0 6 -7 10 -15 10 -8
0 -15 -4 -15 -10z"/>
<path d="M18167 29743 c-16 -8 -26 -17 -24 -20 6 -5 67 24 67 32 0 8 -13 4
-43 -12z"/>
<path d="M18060 29665 c-7 -9 -8 -15 -2 -15 5 0 12 7 16 15 3 8 4 15 2 15 -2
0 -9 -7 -16 -15z"/>
<path d="M17996 29624 c-15 -14 -26 -28 -22 -31 3 -3 14 4 25 15 10 12 23 22
30 22 6 0 11 5 11 10 0 16 -13 11 -44 -16z"/>
<path d="M31350 29640 c0 -5 5 -10 11 -10 5 0 7 5 4 10 -3 6 -8 10 -11 10 -2
0 -4 -4 -4 -10z"/>
<path d="M17890 29545 c-7 -8 -19 -15 -26 -15 -8 0 -14 -4 -14 -10 0 -11 47 7
70 27 12 11 12 13 -2 13 -8 0 -21 -7 -28 -15z"/>
<path d="M31331 29344 c0 -11 3 -14 6 -6 3 7 2 16 -1 19 -3 4 -6 -2 -5 -13z"/>
<path d="M30758 29203 c7 -3 16 -2 19 1 4 3 -2 6 -13 5 -11 0 -14 -3 -6 -6z"/>
<path d="M31335 29190 c-3 -5 -1 -18 4 -27 9 -16 10 -14 11 10 0 28 -5 34 -15
17z"/>
<path d="M31327 29107 c-11 -29 -9 -43 4 -30 6 6 9 19 7 29 -3 18 -4 18 -11 1z"/>
<path d="M31322 29000 c0 -14 2 -19 5 -12 2 6 2 18 0 25 -3 6 -5 1 -5 -13z"/>
<path d="M31300 28955 c0 -8 2 -15 4 -15 2 0 6 7 10 15 3 8 1 15 -4 15 -6 0
-10 -7 -10 -15z"/>
<path d="M27598 28062 c-52 -6 -29 -23 27 -20 30 2 55 8 55 13 0 10 -32 13
-82 7z"/>
<path d="M27718 28043 c7 -3 16 -2 19 1 4 3 -2 6 -13 5 -11 0 -14 -3 -6 -6z"/>
<path d="M15891 27234 c0 -11 3 -14 6 -6 3 7 2 16 -1 19 -3 4 -6 -2 -5 -13z"/>
<path d="M15870 27170 c0 -5 5 -10 10 -10 6 0 10 5 10 10 0 6 -4 10 -10 10 -5
0 -10 -4 -10 -10z"/>
<path d="M16107 24883 c-11 -10 -8 -41 4 -49 6 -3 18 1 27 9 13 13 13 19 2 31
-14 17 -23 20 -33 9z"/>
<path d="M28996 23382 c-3 -6 -1 -14 5 -17 15 -10 25 3 12 16 -7 7 -13 7 -17
1z"/>
<path d="M27030 22280 c0 -5 5 -10 11 -10 5 0 7 5 4 10 -3 6 -8 10 -11 10 -2
0 -4 -4 -4 -10z"/>
<path d="M26810 22260 c0 -5 5 -10 11 -10 5 0 7 5 4 10 -3 6 -8 10 -11 10 -2
0 -4 -4 -4 -10z"/>
<path d="M26563 22243 c9 -2 25 -2 35 0 9 3 1 5 -18 5 -19 0 -27 -2 -17 -5z"/>
<path d="M25838 22158 c9 -9 15 -9 24 0 9 9 7 12 -12 12 -19 0 -21 -3 -12 -12z"/>
<path d="M15210 21060 c0 -5 5 -10 10 -10 6 0 10 5 10 10 0 6 -4 10 -10 10 -5
0 -10 -4 -10 -10z"/>
<path d="M18702 20903 c-35 -14 -212 -190 -212 -210 0 -7 22 -36 49 -64 l49
-51 31 17 c34 17 147 15 233 -4 48 -11 89 -4 161 28 27 11 54 21 60 21 19 0
97 41 97 51 0 5 -8 12 -17 15 -10 3 -40 17 -66 30 -27 13 -54 24 -59 24 -17 0
-179 80 -224 111 -44 30 -81 41 -102 32z"/>
<path d="M18616 20572 c-18 -21 -18 -22 14 -49 52 -44 58 -46 85 -25 13 11 45
25 70 32 25 7 48 17 51 21 3 5 15 9 27 9 21 1 21 1 3 12 -10 6 -67 13 -125 15
-98 5 -107 4 -125 -15z"/>
<path d="M32090 20230 c0 -5 5 -10 11 -10 5 0 7 5 4 10 -3 6 -8 10 -11 10 -2
0 -4 -4 -4 -10z"/>
<path d="M32051 19904 c0 -11 3 -14 6 -6 3 7 2 16 -1 19 -3 4 -6 -2 -5 -13z"/>
<path d="M31747 19243 c-4 -3 -7 -11 -7 -17 0 -6 5 -5 12 2 6 6 9 14 7 17 -3
3 -9 2 -12 -2z"/>
<path d="M26778 17953 c7 -3 16 -2 19 1 4 3 -2 6 -13 5 -11 0 -14 -3 -6 -6z"/>
<path d="M30825 17400 c3 -5 8 -10 11 -10 2 0 4 5 4 10 0 6 -5 10 -11 10 -5 0
-7 -4 -4 -10z"/>
<path d="M29825 17280 c-3 -5 -1 -10 4 -10 6 0 11 5 11 10 0 6 -2 10 -4 10 -3
0 -8 -4 -11 -10z"/>
<path d="M31405 17150 c3 -5 10 -10 16 -10 5 0 9 5 9 10 0 6 -7 10 -16 10 -8
0 -12 -4 -9 -10z"/>
<path d="M14760 16408 c0 -8 12 -15 27 -16 29 -2 29 0 -4 17 -18 9 -23 9 -23
-1z"/>
<path d="M19865 16391 c-27 -10 -102 -35 -165 -56 -63 -20 -131 -44 -150 -52
-19 -8 -50 -21 -68 -29 -18 -8 -41 -14 -50 -14 -10 0 -22 -4 -27 -9 -6 -5 -39
-19 -75 -31 -36 -12 -78 -28 -95 -35 -16 -7 -51 -21 -77 -31 -27 -11 -48 -23
-48 -27 0 -5 -4 -5 -10 -2 -5 3 -10 4 -10 1 0 -3 17 -12 38 -21 20 -9 49 -23
64 -31 14 -8 35 -14 46 -14 12 0 24 -5 28 -11 4 -7 21 -9 44 -5 36 6 39 4 45
-24 4 -17 12 -30 18 -31 7 -1 30 -2 51 -3 21 -2 44 -9 50 -17 16 -21 114 -69
141 -69 13 0 28 -7 33 -16 5 -9 15 -14 23 -12 8 3 27 -4 42 -15 16 -11 46 -21
66 -22 24 -1 47 -11 65 -28 16 -15 40 -27 52 -27 13 0 24 -4 24 -9 0 -5 12
-11 28 -14 68 -14 88 -21 103 -34 9 -7 25 -15 37 -18 11 -2 34 -11 51 -19 16
-9 53 -21 81 -27 27 -6 50 -15 50 -20 0 -5 9 -9 20 -9 11 0 28 -4 38 -10 31
-17 148 -60 164 -60 9 0 42 -13 73 -30 62 -33 81 -37 87 -18 3 8 25 -1 62 -26
68 -45 125 -64 136 -46 6 9 11 7 18 -7 6 -11 30 -25 54 -33 24 -7 57 -21 73
-30 40 -23 82 -32 90 -20 9 15 28 12 22 -4 -6 -16 36 -39 90 -51 18 -3 35 -11
38 -16 4 -5 14 -9 24 -9 9 0 41 -12 69 -26 29 -14 59 -24 66 -21 8 3 17 0 19
-7 5 -12 42 -24 90 -29 9 -1 17 -5 17 -9 0 -4 18 -11 40 -14 22 -4 40 -10 40
-14 0 -5 21 -15 48 -23 197 -61 312 -101 312 -107 0 -5 24 -14 53 -20 28 -7
73 -23 99 -36 70 -35 155 -37 188 -4 37 37 325 254 378 285 9 5 49 30 87 55
39 25 78 49 87 55 241 145 269 161 332 185 27 10 37 49 14 51 -7 1 -31 2 -53
4 -52 4 -143 23 -345 71 -36 8 -94 22 -130 30 -36 9 -103 24 -150 36 -47 11
-98 21 -115 23 -16 2 -68 14 -115 28 -47 14 -112 30 -145 37 -33 6 -87 20
-120 30 -33 11 -89 24 -125 30 -80 13 -140 30 -160 45 -8 7 -33 16 -55 20 -95
17 -323 71 -360 85 -37 14 -89 28 -148 41 -32 7 -60 16 -63 21 -3 4 -13 8 -23
8 -19 0 -50 9 -206 57 -44 14 -89 27 -100 28 -11 2 -42 11 -69 19 -27 9 -59
16 -72 16 -12 0 -24 3 -26 8 -4 10 -124 51 -167 58 -19 2 -40 8 -45 13 -6 5
-27 12 -46 16 -19 4 -39 11 -45 15 -5 5 -41 16 -80 25 -38 10 -79 21 -90 26
-118 49 -201 58 -280 30z m275 -701 c0 -5 -4 -10 -10 -10 -5 0 -10 5 -10 10 0
6 5 10 10 10 6 0 10 -4 10 -10z"/>
<path d="M19310 16000 c0 -5 5 -10 11 -10 5 0 7 5 4 10 -3 6 -8 10 -11 10 -2
0 -4 -4 -4 -10z"/>
<path d="M21480 15070 c0 -5 7 -10 16 -10 8 0 12 5 9 10 -3 6 -10 10 -16 10
-5 0 -9 -4 -9 -10z"/>
<path d="M15330 14864 c0 -8 5 -12 10 -9 6 3 10 10 10 16 0 5 -4 9 -10 9 -5 0
-10 -7 -10 -16z"/>
<path d="M32030 14275 c0 -8 5 -15 10 -15 6 0 10 7 10 15 0 8 -4 15 -10 15 -5
0 -10 -7 -10 -15z"/>
<path d="M18017 14135 c-35 -45 -28 -45 20 0 23 21 32 35 23 35 -8 0 -28 -16
-43 -35z"/>
<path d="M31905 14070 c4 -6 11 -8 16 -5 14 9 11 15 -7 15 -8 0 -12 -5 -9 -10z"/>
<path d="M17350 13330 c0 -5 5 -10 11 -10 5 0 7 5 4 10 -3 6 -8 10 -11 10 -2
0 -4 -4 -4 -10z"/>
<path d="M17580 13260 c0 -5 10 -10 23 -10 18 0 19 2 7 10 -19 13 -30 13 -30
0z"/>
<path d="M18785 12970 c-3 -5 -1 -10 4 -10 6 0 11 5 11 10 0 6 -2 10 -4 10 -3
0 -8 -4 -11 -10z"/>
<path d="M29555 12930 c-3 -5 -1 -10 4 -10 6 0 11 5 11 10 0 6 -2 10 -4 10 -3
0 -8 -4 -11 -10z"/>
<path d="M28160 12725 c-8 -9 -8 -15 -2 -15 12 0 26 19 19 26 -2 2 -10 -2 -17
-11z"/>
<path d="M28370 12690 c0 -5 5 -10 11 -10 5 0 7 5 4 10 -3 6 -8 10 -11 10 -2
0 -4 -4 -4 -10z"/>
<path d="M28026 12645 c-3 -9 0 -15 9 -15 16 0 20 16 6 24 -5 3 -11 -1 -15 -9z"/>
<path d="M28125 12640 c3 -5 11 -10 16 -10 6 0 7 5 4 10 -3 6 -11 10 -16 10
-6 0 -7 -4 -4 -10z"/>
<path d="M27465 12610 c3 -5 8 -10 11 -10 2 0 4 5 4 10 0 6 -5 10 -11 10 -5 0
-7 -4 -4 -10z"/>
<path d="M27979 12609 c16 -6 28 -6 35 1 7 7 -1 10 -24 9 -33 0 -34 -1 -11
-10z"/>
<path d="M26957 12493 c-4 -3 -7 -11 -7 -17 0 -6 5 -5 12 2 6 6 9 14 7 17 -3
3 -9 2 -12 -2z"/>
<path d="M25935 12230 c-3 -5 1 -10 10 -10 12 0 15 -6 10 -20 -5 -16 -2 -20
15 -20 17 0 19 3 11 18 -15 29 -38 45 -46 32z"/>
<path d="M25835 12190 c-3 -6 1 -7 9 -4 18 7 21 14 7 14 -6 0 -13 -4 -16 -10z"/>
<path d="M25095 11630 c3 -5 8 -10 11 -10 2 0 4 5 4 10 0 6 -5 10 -11 10 -5 0
-7 -4 -4 -10z"/>
<path d="M24565 11412 c-28 -15 -59 -34 -68 -42 -50 -42 -167 -160 -167 -168
0 -5 -7 -15 -15 -22 -12 -10 -13 -25 -8 -69 6 -51 5 -55 -10 -42 -15 12 -17
11 -17 -7 0 -11 7 -23 16 -26 27 -10 54 -7 54 8 0 16 27 29 35 17 3 -5 16 -4
30 2 18 9 25 20 25 40 0 20 7 30 24 37 26 9 47 25 102 76 32 30 32 31 13 45
-20 14 -20 14 3 19 19 5 23 13 24 48 3 61 12 92 29 92 8 0 15 5 15 10 0 17
-33 10 -85 -18z m-205 -336 c0 -2 -7 -7 -16 -10 -8 -3 -12 -2 -9 4 6 10 25 14
25 6z"/>
<path d="M24260 11150 c0 -5 7 -7 15 -4 8 4 15 8 15 10 0 2 -7 4 -15 4 -8 0
-15 -4 -15 -10z"/>
<path d="M24281 11114 c0 -11 3 -14 6 -6 3 7 2 16 -1 19 -3 4 -6 -2 -5 -13z"/>
<path d="M24262 11018 c6 -18 28 -21 28 -4 0 9 -7 16 -16 16 -9 0 -14 -5 -12
-12z"/>
<path d="M24628 10973 c6 -2 18 -2 25 0 6 3 1 5 -13 5 -14 0 -19 -2 -12 -5z"/>
<path d="M24190 10680 c0 -5 5 -10 10 -10 6 0 10 5 10 10 0 6 -4 10 -10 10 -5
0 -10 -4 -10 -10z"/>
<path d="M24150 10649 c0 -11 5 -17 10 -14 6 3 10 13 10 21 0 8 -4 14 -10 14
-5 0 -10 -9 -10 -21z"/>
<path d="M23530 35541 c0 -15 6 -21 21 -21 14 0 19 5 17 17 -5 26 -38 29 -38
4z"/>
<path d="M25267 33946 c-4 -10 -5 -21 -2 -24 9 -9 17 6 13 25 -3 17 -4 17 -11
-1z"/>
<path d="M25401 33784 c0 -11 3 -14 6 -6 3 7 2 16 -1 19 -3 4 -6 -2 -5 -13z"/>
<path d="M25362 33615 c0 -16 2 -22 5 -12 2 9 2 23 0 30 -3 6 -5 -1 -5 -18z"/>
<path d="M26155 12200 c3 -5 11 -10 16 -10 6 0 7 5 4 10 -3 6 -11 10 -16 10
-6 0 -7 -4 -4 -10z"/>
</g>
</svg>
